<mxfile host="Electron" modified="2024-05-02T10:09:36.901Z" agent="Mozilla/5.0 (Windows NT 10.0; Win64; x64) AppleWebKit/537.36 (KHTML, like Gecko) draw.io/22.1.16 Chrome/120.0.6099.109 Electron/28.1.0 Safari/537.36" etag="wTC2Eulf5bmX2PKbW-bX" version="22.1.16" type="device" pages="6">
  <diagram id="2rGhk9S-BhAgbP9WORcz" name="Software overview">
    <mxGraphModel dx="1107" dy="758" grid="1" gridSize="10" guides="1" tooltips="1" connect="1" arrows="1" fold="1" page="1" pageScale="1" pageWidth="1169" pageHeight="827" math="0" shadow="0">
      <root>
        <mxCell id="0" />
        <mxCell id="1" parent="0" />
        <mxCell id="aDz3l9U_8TU9LJlqT8bB-20" style="edgeStyle=orthogonalEdgeStyle;rounded=0;orthogonalLoop=1;jettySize=auto;html=1;exitX=1;exitY=0.5;exitDx=0;exitDy=0;entryX=0;entryY=0.5;entryDx=0;entryDy=0;dashed=1;dashPattern=1 4;" parent="1" source="aDz3l9U_8TU9LJlqT8bB-1" target="GoEXQKf4y78XVW4AcF5e-11" edge="1">
          <mxGeometry relative="1" as="geometry">
            <mxPoint x="980" y="730.2" as="targetPoint" />
          </mxGeometry>
        </mxCell>
        <mxCell id="aDz3l9U_8TU9LJlqT8bB-1" value="Arduino" style="rounded=1;whiteSpace=wrap;html=1;fillColor=#f5f5f5;fontColor=#333333;strokeColor=#666666;" parent="1" vertex="1">
          <mxGeometry x="40" y="590" width="120" height="60" as="geometry" />
        </mxCell>
        <mxCell id="aDz3l9U_8TU9LJlqT8bB-7" style="edgeStyle=orthogonalEdgeStyle;rounded=0;orthogonalLoop=1;jettySize=auto;html=1;exitX=0.5;exitY=1;exitDx=0;exitDy=0;entryX=0.5;entryY=0;entryDx=0;entryDy=0;dashed=1;dashPattern=1 4;" parent="1" source="aDz3l9U_8TU9LJlqT8bB-2" target="aDz3l9U_8TU9LJlqT8bB-1" edge="1">
          <mxGeometry relative="1" as="geometry" />
        </mxCell>
        <mxCell id="aDz3l9U_8TU9LJlqT8bB-8" style="edgeStyle=orthogonalEdgeStyle;rounded=0;orthogonalLoop=1;jettySize=auto;html=1;exitX=0.5;exitY=0;exitDx=0;exitDy=0;entryX=0.5;entryY=1;entryDx=0;entryDy=0;dashed=1;" parent="1" source="aDz3l9U_8TU9LJlqT8bB-2" target="aDz3l9U_8TU9LJlqT8bB-6" edge="1">
          <mxGeometry relative="1" as="geometry" />
        </mxCell>
        <mxCell id="aDz3l9U_8TU9LJlqT8bB-15" value="" style="edgeStyle=orthogonalEdgeStyle;rounded=0;orthogonalLoop=1;jettySize=auto;html=1;entryX=0;entryY=0.5;entryDx=0;entryDy=0;dashed=1;exitX=1;exitY=0.5;exitDx=0;exitDy=0;strokeColor=#000000;dashPattern=1 4;" parent="1" source="aDz3l9U_8TU9LJlqT8bB-2" target="aDz3l9U_8TU9LJlqT8bB-14" edge="1">
          <mxGeometry relative="1" as="geometry" />
        </mxCell>
        <mxCell id="aDz3l9U_8TU9LJlqT8bB-2" value="Jetson Nano" style="whiteSpace=wrap;html=1;rounded=1;fillColor=#f5f5f5;fontColor=#333333;strokeColor=#666666;" parent="1" vertex="1">
          <mxGeometry x="40" y="420.2" width="120" height="60" as="geometry" />
        </mxCell>
        <mxCell id="aDz3l9U_8TU9LJlqT8bB-11" style="edgeStyle=orthogonalEdgeStyle;rounded=0;orthogonalLoop=1;jettySize=auto;html=1;exitX=0.5;exitY=0;exitDx=0;exitDy=0;entryX=0.5;entryY=1;entryDx=0;entryDy=0;dashed=1;" parent="1" source="aDz3l9U_8TU9LJlqT8bB-6" target="aDz3l9U_8TU9LJlqT8bB-9" edge="1">
          <mxGeometry relative="1" as="geometry" />
        </mxCell>
        <mxCell id="aDz3l9U_8TU9LJlqT8bB-6" value="Betriebsystem&amp;nbsp;&lt;br&gt;Ubuntu&lt;br/&gt;Server 22.04.3 LTS (64-bit)" style="rounded=0;whiteSpace=wrap;html=1;fillColor=#fad9d5;strokeColor=#ae4132;" parent="1" vertex="1">
          <mxGeometry x="40" y="300.2" width="120" height="60" as="geometry" />
        </mxCell>
        <mxCell id="ki-zjodoaLn8A9avzpk7-4" style="edgeStyle=orthogonalEdgeStyle;rounded=0;orthogonalLoop=1;jettySize=auto;html=1;exitX=1;exitY=0.5;exitDx=0;exitDy=0;entryX=0;entryY=0.5;entryDx=0;entryDy=0;dashed=1;" parent="1" source="aDz3l9U_8TU9LJlqT8bB-9" target="ki-zjodoaLn8A9avzpk7-3" edge="1">
          <mxGeometry relative="1" as="geometry" />
        </mxCell>
        <mxCell id="ki-zjodoaLn8A9avzpk7-11" style="edgeStyle=orthogonalEdgeStyle;rounded=0;orthogonalLoop=1;jettySize=auto;html=1;entryX=0;entryY=0.5;entryDx=0;entryDy=0;dashed=1;" parent="1" source="aDz3l9U_8TU9LJlqT8bB-9" target="aDz3l9U_8TU9LJlqT8bB-30" edge="1">
          <mxGeometry relative="1" as="geometry">
            <Array as="points">
              <mxPoint x="180" y="210.2" />
              <mxPoint x="180" y="180.2" />
            </Array>
          </mxGeometry>
        </mxCell>
        <mxCell id="aDz3l9U_8TU9LJlqT8bB-9" value="ROS2 Humble" style="rounded=0;whiteSpace=wrap;html=1;fillColor=#fad9d5;strokeColor=#ae4132;" parent="1" vertex="1">
          <mxGeometry x="40" y="180.2" width="120" height="60" as="geometry" />
        </mxCell>
        <mxCell id="aDz3l9U_8TU9LJlqT8bB-14" value="Kamera" style="whiteSpace=wrap;html=1;rounded=1;fillColor=#f5f5f5;fontColor=#333333;strokeColor=#666666;" parent="1" vertex="1">
          <mxGeometry x="200" y="420.2" width="120" height="60" as="geometry" />
        </mxCell>
        <mxCell id="aDz3l9U_8TU9LJlqT8bB-37" style="edgeStyle=orthogonalEdgeStyle;rounded=0;orthogonalLoop=1;jettySize=auto;html=1;exitX=0;exitY=0.5;exitDx=0;exitDy=0;entryX=0.5;entryY=0;entryDx=0;entryDy=0;" parent="1" source="aDz3l9U_8TU9LJlqT8bB-31" target="aDz3l9U_8TU9LJlqT8bB-14" edge="1">
          <mxGeometry relative="1" as="geometry">
            <mxPoint x="260" y="450.20000000000005" as="sourcePoint" />
          </mxGeometry>
        </mxCell>
        <mxCell id="aDz3l9U_8TU9LJlqT8bB-53" style="edgeStyle=orthogonalEdgeStyle;rounded=0;orthogonalLoop=1;jettySize=auto;html=1;exitX=0.75;exitY=1;exitDx=0;exitDy=0;entryX=0.75;entryY=0;entryDx=0;entryDy=0;" parent="1" source="aDz3l9U_8TU9LJlqT8bB-30" target="aDz3l9U_8TU9LJlqT8bB-31" edge="1">
          <mxGeometry relative="1" as="geometry">
            <mxPoint x="660" y="270.2" as="sourcePoint" />
            <mxPoint x="770" y="320.2" as="targetPoint" />
          </mxGeometry>
        </mxCell>
        <mxCell id="aDz3l9U_8TU9LJlqT8bB-30" value="cv_bridge" style="rounded=0;whiteSpace=wrap;html=1;fillColor=#dae8fc;strokeColor=#6c8ebf;" parent="1" vertex="1">
          <mxGeometry x="440" y="150.2" width="120" height="60" as="geometry" />
        </mxCell>
        <mxCell id="aDz3l9U_8TU9LJlqT8bB-44" style="edgeStyle=orthogonalEdgeStyle;rounded=0;orthogonalLoop=1;jettySize=auto;html=1;exitX=0.5;exitY=0;exitDx=0;exitDy=0;entryX=0.5;entryY=1;entryDx=0;entryDy=0;" parent="1" source="aDz3l9U_8TU9LJlqT8bB-31" target="aDz3l9U_8TU9LJlqT8bB-30" edge="1">
          <mxGeometry relative="1" as="geometry">
            <mxPoint x="750" y="320.2" as="sourcePoint" />
            <mxPoint x="680" y="370.2" as="targetPoint" />
          </mxGeometry>
        </mxCell>
        <mxCell id="aDz3l9U_8TU9LJlqT8bB-47" style="edgeStyle=orthogonalEdgeStyle;rounded=0;orthogonalLoop=1;jettySize=auto;html=1;entryX=0.5;entryY=0;entryDx=0;entryDy=0;exitX=0.5;exitY=1;exitDx=0;exitDy=0;" parent="1" source="aDz3l9U_8TU9LJlqT8bB-31" target="aDz3l9U_8TU9LJlqT8bB-32" edge="1">
          <mxGeometry relative="1" as="geometry">
            <mxPoint x="740" y="290.2" as="sourcePoint" />
          </mxGeometry>
        </mxCell>
        <mxCell id="ki-zjodoaLn8A9avzpk7-12" style="edgeStyle=orthogonalEdgeStyle;rounded=0;orthogonalLoop=1;jettySize=auto;html=1;exitX=1;exitY=0.75;exitDx=0;exitDy=0;entryX=0.5;entryY=0;entryDx=0;entryDy=0;" parent="1" source="aDz3l9U_8TU9LJlqT8bB-31" target="ki-zjodoaLn8A9avzpk7-10" edge="1">
          <mxGeometry relative="1" as="geometry" />
        </mxCell>
        <mxCell id="6FCWO0ZH20jrHunUNdt0-4" style="rounded=0;orthogonalLoop=1;jettySize=auto;html=1;exitX=1;exitY=0.25;exitDx=0;exitDy=0;entryX=0;entryY=0.5;entryDx=0;entryDy=0;" parent="1" source="aDz3l9U_8TU9LJlqT8bB-31" target="6FCWO0ZH20jrHunUNdt0-3" edge="1">
          <mxGeometry relative="1" as="geometry">
            <mxPoint x="710" y="334.2" as="targetPoint" />
          </mxGeometry>
        </mxCell>
        <mxCell id="aDz3l9U_8TU9LJlqT8bB-31" value="camera_opencv_loop" style="rounded=0;whiteSpace=wrap;html=1;fillColor=#d5e8d4;strokeColor=#82b366;" parent="1" vertex="1">
          <mxGeometry x="440" y="310.2" width="120" height="60" as="geometry" />
        </mxCell>
        <mxCell id="ki-zjodoaLn8A9avzpk7-14" style="edgeStyle=orthogonalEdgeStyle;rounded=0;orthogonalLoop=1;jettySize=auto;html=1;exitX=0.75;exitY=0;exitDx=0;exitDy=0;entryX=0.75;entryY=1;entryDx=0;entryDy=0;" parent="1" source="aDz3l9U_8TU9LJlqT8bB-32" target="aDz3l9U_8TU9LJlqT8bB-31" edge="1">
          <mxGeometry relative="1" as="geometry" />
        </mxCell>
        <mxCell id="aDz3l9U_8TU9LJlqT8bB-32" value="human_detection" style="rounded=0;whiteSpace=wrap;html=1;fillColor=#dae8fc;strokeColor=#6c8ebf;" parent="1" vertex="1">
          <mxGeometry x="440" y="450.2" width="120" height="60" as="geometry" />
        </mxCell>
        <mxCell id="GoEXQKf4y78XVW4AcF5e-3" style="edgeStyle=orthogonalEdgeStyle;rounded=0;orthogonalLoop=1;jettySize=auto;html=1;" parent="1" source="aDz3l9U_8TU9LJlqT8bB-56" target="GoEXQKf4y78XVW4AcF5e-2" edge="1">
          <mxGeometry relative="1" as="geometry" />
        </mxCell>
        <mxCell id="aDz3l9U_8TU9LJlqT8bB-56" value="movement_control" style="rounded=0;whiteSpace=wrap;html=1;fillColor=#d5e8d4;strokeColor=#82b366;" parent="1" vertex="1">
          <mxGeometry x="870" y="310.2" width="120" height="60" as="geometry" />
        </mxCell>
        <mxCell id="ki-zjodoaLn8A9avzpk7-7" style="edgeStyle=orthogonalEdgeStyle;rounded=0;orthogonalLoop=1;jettySize=auto;html=1;exitX=1;exitY=0.5;exitDx=0;exitDy=0;entryX=0.25;entryY=0;entryDx=0;entryDy=0;dashed=1;" parent="1" source="ki-zjodoaLn8A9avzpk7-3" target="aDz3l9U_8TU9LJlqT8bB-31" edge="1">
          <mxGeometry relative="1" as="geometry" />
        </mxCell>
        <mxCell id="ki-zjodoaLn8A9avzpk7-37" style="edgeStyle=orthogonalEdgeStyle;rounded=0;orthogonalLoop=1;jettySize=auto;html=1;exitX=1;exitY=0.5;exitDx=0;exitDy=0;entryX=0.25;entryY=0;entryDx=0;entryDy=0;dashed=1;" parent="1" source="ki-zjodoaLn8A9avzpk7-3" target="aDz3l9U_8TU9LJlqT8bB-56" edge="1">
          <mxGeometry relative="1" as="geometry" />
        </mxCell>
        <mxCell id="6FCWO0ZH20jrHunUNdt0-6" style="edgeStyle=orthogonalEdgeStyle;rounded=0;orthogonalLoop=1;jettySize=auto;html=1;exitX=1;exitY=0.5;exitDx=0;exitDy=0;entryX=0.25;entryY=0;entryDx=0;entryDy=0;dashed=1;" parent="1" source="ki-zjodoaLn8A9avzpk7-3" target="6FCWO0ZH20jrHunUNdt0-1" edge="1">
          <mxGeometry relative="1" as="geometry" />
        </mxCell>
        <mxCell id="6FCWO0ZH20jrHunUNdt0-15" style="edgeStyle=orthogonalEdgeStyle;rounded=0;orthogonalLoop=1;jettySize=auto;html=1;exitX=1;exitY=0.5;exitDx=0;exitDy=0;entryX=0;entryY=0.25;entryDx=0;entryDy=0;dashed=1;" parent="1" source="ki-zjodoaLn8A9avzpk7-3" target="aDz3l9U_8TU9LJlqT8bB-32" edge="1">
          <mxGeometry relative="1" as="geometry">
            <Array as="points">
              <mxPoint x="400" y="270" />
              <mxPoint x="400" y="465" />
            </Array>
          </mxGeometry>
        </mxCell>
        <mxCell id="ki-zjodoaLn8A9avzpk7-3" value="camera_package" style="rounded=0;whiteSpace=wrap;html=1;fillColor=#b0e3e6;strokeColor=#0e8088;" parent="1" vertex="1">
          <mxGeometry x="200" y="240.2" width="120" height="60" as="geometry" />
        </mxCell>
        <mxCell id="GoEXQKf4y78XVW4AcF5e-7" style="edgeStyle=orthogonalEdgeStyle;rounded=0;orthogonalLoop=1;jettySize=auto;html=1;entryX=0.25;entryY=1;entryDx=0;entryDy=0;" parent="1" source="ki-zjodoaLn8A9avzpk7-10" target="aDz3l9U_8TU9LJlqT8bB-56" edge="1">
          <mxGeometry relative="1" as="geometry" />
        </mxCell>
        <mxCell id="ki-zjodoaLn8A9avzpk7-10" value="/position_data" style="ellipse;whiteSpace=wrap;html=1;fillColor=#ffcc99;strokeColor=#36393d;" parent="1" vertex="1">
          <mxGeometry x="630" y="375.2" width="80" height="40" as="geometry" />
        </mxCell>
        <mxCell id="ki-zjodoaLn8A9avzpk7-29" value="Function" style="rounded=0;whiteSpace=wrap;html=1;fillColor=#dae8fc;strokeColor=#6c8ebf;" parent="1" vertex="1">
          <mxGeometry x="520" y="40" width="80" height="40" as="geometry" />
        </mxCell>
        <mxCell id="ki-zjodoaLn8A9avzpk7-30" value="Package" style="rounded=0;whiteSpace=wrap;html=1;fillColor=#b0e3e6;strokeColor=#0e8088;" parent="1" vertex="1">
          <mxGeometry x="280" y="40" width="80" height="40" as="geometry" />
        </mxCell>
        <mxCell id="ki-zjodoaLn8A9avzpk7-31" value="Node" style="rounded=0;whiteSpace=wrap;html=1;fillColor=#d5e8d4;strokeColor=#82b366;" parent="1" vertex="1">
          <mxGeometry x="400" y="40" width="80" height="40" as="geometry" />
        </mxCell>
        <mxCell id="ki-zjodoaLn8A9avzpk7-38" value="Topics" style="ellipse;whiteSpace=wrap;html=1;fillColor=#fad7ac;strokeColor=#b46504;" parent="1" vertex="1">
          <mxGeometry x="760" y="40" width="80" height="40" as="geometry" />
        </mxCell>
        <mxCell id="ki-zjodoaLn8A9avzpk7-39" value="Operating Systems" style="rounded=0;whiteSpace=wrap;html=1;fillColor=#fad9d5;strokeColor=#ae4132;" parent="1" vertex="1">
          <mxGeometry x="160" y="40" width="80" height="40" as="geometry" />
        </mxCell>
        <mxCell id="ki-zjodoaLn8A9avzpk7-40" value="Hardware" style="rounded=1;whiteSpace=wrap;html=1;fillColor=#f5f5f5;fontColor=#333333;strokeColor=#666666;" parent="1" vertex="1">
          <mxGeometry x="40" y="40" width="80" height="40" as="geometry" />
        </mxCell>
        <mxCell id="ki-zjodoaLn8A9avzpk7-41" value="OpenCV Image" style="rounded=0;whiteSpace=wrap;html=1;" parent="1" vertex="1">
          <mxGeometry x="530" y="230.2" width="90" height="20" as="geometry" />
        </mxCell>
        <mxCell id="ki-zjodoaLn8A9avzpk7-42" value="Ros2 Image" style="rounded=0;whiteSpace=wrap;html=1;" parent="1" vertex="1">
          <mxGeometry x="420" y="230.2" width="80" height="20" as="geometry" />
        </mxCell>
        <mxCell id="ki-zjodoaLn8A9avzpk7-44" value="Coordinates" style="rounded=0;whiteSpace=wrap;html=1;" parent="1" vertex="1">
          <mxGeometry x="530" y="420.2" width="80" height="20" as="geometry" />
        </mxCell>
        <mxCell id="ki-zjodoaLn8A9avzpk7-45" value="OpenCV Image" style="rounded=0;whiteSpace=wrap;html=1;" parent="1" vertex="1">
          <mxGeometry x="410" y="410.2" width="90" height="20" as="geometry" />
        </mxCell>
        <mxCell id="ki-zjodoaLn8A9avzpk7-46" value="Accesses Camera" style="rounded=0;whiteSpace=wrap;html=1;" parent="1" vertex="1">
          <mxGeometry x="260" y="380.2" width="100" height="20" as="geometry" />
        </mxCell>
        <mxCell id="ki-zjodoaLn8A9avzpk7-52" style="edgeStyle=orthogonalEdgeStyle;rounded=0;orthogonalLoop=1;jettySize=auto;html=1;" parent="1" edge="1">
          <mxGeometry relative="1" as="geometry">
            <mxPoint x="920" y="49.8" as="targetPoint" />
            <mxPoint x="880" y="49.8" as="sourcePoint" />
            <Array as="points">
              <mxPoint x="910" y="49.8" />
              <mxPoint x="910" y="49.8" />
            </Array>
          </mxGeometry>
        </mxCell>
        <mxCell id="ki-zjodoaLn8A9avzpk7-53" value="Data Stream" style="rounded=0;whiteSpace=wrap;html=1;" parent="1" vertex="1">
          <mxGeometry x="940" y="40" width="80" height="20" as="geometry" />
        </mxCell>
        <mxCell id="ki-zjodoaLn8A9avzpk7-54" style="edgeStyle=orthogonalEdgeStyle;rounded=0;orthogonalLoop=1;jettySize=auto;html=1;dashed=1;" parent="1" edge="1">
          <mxGeometry relative="1" as="geometry">
            <mxPoint x="920" y="79.8" as="targetPoint" />
            <mxPoint x="880" y="79.8" as="sourcePoint" />
            <Array as="points">
              <mxPoint x="910" y="79.8" />
              <mxPoint x="910" y="79.8" />
            </Array>
          </mxGeometry>
        </mxCell>
        <mxCell id="ki-zjodoaLn8A9avzpk7-55" value="Relation" style="rounded=0;whiteSpace=wrap;html=1;" parent="1" vertex="1">
          <mxGeometry x="940" y="70" width="80" height="20" as="geometry" />
        </mxCell>
        <mxCell id="wmYTeU4z5wU_EU1Hv5by-3" style="edgeStyle=orthogonalEdgeStyle;rounded=0;orthogonalLoop=1;jettySize=auto;html=1;dashed=1;dashPattern=1 4;" parent="1" edge="1">
          <mxGeometry relative="1" as="geometry">
            <mxPoint x="920" y="110" as="targetPoint" />
            <mxPoint x="880" y="110" as="sourcePoint" />
            <Array as="points">
              <mxPoint x="880" y="110" />
              <mxPoint x="880" y="110" />
            </Array>
          </mxGeometry>
        </mxCell>
        <mxCell id="wmYTeU4z5wU_EU1Hv5by-4" value="Wiring" style="rounded=0;whiteSpace=wrap;html=1;" parent="1" vertex="1">
          <mxGeometry x="940" y="100" width="80" height="20" as="geometry" />
        </mxCell>
        <mxCell id="6FCWO0ZH20jrHunUNdt0-8" style="edgeStyle=orthogonalEdgeStyle;rounded=0;orthogonalLoop=1;jettySize=auto;html=1;exitX=0.5;exitY=0;exitDx=0;exitDy=0;entryX=0.5;entryY=1;entryDx=0;entryDy=0;" parent="1" source="6FCWO0ZH20jrHunUNdt0-1" target="6FCWO0ZH20jrHunUNdt0-7" edge="1">
          <mxGeometry relative="1" as="geometry" />
        </mxCell>
        <mxCell id="6FCWO0ZH20jrHunUNdt0-1" value="camera_streamer" style="rounded=0;whiteSpace=wrap;html=1;fillColor=#d5e8d4;strokeColor=#82b366;" parent="1" vertex="1">
          <mxGeometry x="730" y="310.2" width="120" height="60" as="geometry" />
        </mxCell>
        <mxCell id="6FCWO0ZH20jrHunUNdt0-5" style="rounded=0;orthogonalLoop=1;jettySize=auto;html=1;exitX=1;exitY=0.5;exitDx=0;exitDy=0;entryX=0;entryY=0.25;entryDx=0;entryDy=0;" parent="1" source="6FCWO0ZH20jrHunUNdt0-3" target="6FCWO0ZH20jrHunUNdt0-1" edge="1">
          <mxGeometry relative="1" as="geometry" />
        </mxCell>
        <mxCell id="6FCWO0ZH20jrHunUNdt0-3" value="&lt;font style=&quot;font-size: 11px;&quot;&gt;/opencv_image&lt;/font&gt;" style="ellipse;whiteSpace=wrap;html=1;fillColor=#ffcc99;strokeColor=#36393d;" parent="1" vertex="1">
          <mxGeometry x="630" y="305.2" width="80" height="40" as="geometry" />
        </mxCell>
        <mxCell id="6FCWO0ZH20jrHunUNdt0-7" value="Website" style="rounded=0;whiteSpace=wrap;html=1;" parent="1" vertex="1">
          <mxGeometry x="730" y="150.2" width="120" height="60" as="geometry" />
        </mxCell>
        <mxCell id="6FCWO0ZH20jrHunUNdt0-11" value="&lt;font style=&quot;font-size: 10px;&quot;&gt;Processed Image&lt;/font&gt;" style="rounded=0;whiteSpace=wrap;html=1;" parent="1" vertex="1">
          <mxGeometry x="710" y="230.2" width="80" height="20" as="geometry" />
        </mxCell>
        <mxCell id="6FCWO0ZH20jrHunUNdt0-12" value="&lt;font style=&quot;font-size: 10px;&quot;&gt;Processed Image&lt;/font&gt;" style="rounded=0;whiteSpace=wrap;html=1;" parent="1" vertex="1">
          <mxGeometry x="530" y="390.2" width="80" height="20" as="geometry" />
        </mxCell>
        <mxCell id="6FCWO0ZH20jrHunUNdt0-13" value="UI" style="rounded=0;whiteSpace=wrap;html=1;" parent="1" vertex="1">
          <mxGeometry x="640" y="40" width="80" height="40" as="geometry" />
        </mxCell>
        <mxCell id="GoEXQKf4y78XVW4AcF5e-10" style="edgeStyle=orthogonalEdgeStyle;rounded=0;orthogonalLoop=1;jettySize=auto;html=1;" parent="1" source="GoEXQKf4y78XVW4AcF5e-1" target="GoEXQKf4y78XVW4AcF5e-9" edge="1">
          <mxGeometry relative="1" as="geometry" />
        </mxCell>
        <mxCell id="GoEXQKf4y78XVW4AcF5e-1" value="arduino_interface" style="rounded=0;whiteSpace=wrap;html=1;fillColor=#d5e8d4;strokeColor=#82b366;" parent="1" vertex="1">
          <mxGeometry x="1020" y="410.2" width="120" height="60" as="geometry" />
        </mxCell>
        <mxCell id="GoEXQKf4y78XVW4AcF5e-4" style="edgeStyle=orthogonalEdgeStyle;rounded=0;orthogonalLoop=1;jettySize=auto;html=1;" parent="1" source="GoEXQKf4y78XVW4AcF5e-2" target="GoEXQKf4y78XVW4AcF5e-1" edge="1">
          <mxGeometry relative="1" as="geometry" />
        </mxCell>
        <mxCell id="GoEXQKf4y78XVW4AcF5e-2" value="&lt;font style=&quot;font-size: 12px;&quot;&gt;/&lt;/font&gt;motor" style="ellipse;whiteSpace=wrap;html=1;fillColor=#ffcc99;strokeColor=#36393d;" parent="1" vertex="1">
          <mxGeometry x="880.0000000000002" y="420.2000000000001" width="100" height="40" as="geometry" />
        </mxCell>
        <mxCell id="GoEXQKf4y78XVW4AcF5e-6" style="edgeStyle=orthogonalEdgeStyle;rounded=0;orthogonalLoop=1;jettySize=auto;html=1;exitX=1;exitY=0.5;exitDx=0;exitDy=0;dashed=1;entryX=0.25;entryY=0;entryDx=0;entryDy=0;" parent="1" source="ki-zjodoaLn8A9avzpk7-3" target="GoEXQKf4y78XVW4AcF5e-1" edge="1">
          <mxGeometry relative="1" as="geometry">
            <mxPoint x="330" y="280" as="sourcePoint" />
            <mxPoint x="1070" y="370" as="targetPoint" />
          </mxGeometry>
        </mxCell>
        <mxCell id="GoEXQKf4y78XVW4AcF5e-12" style="edgeStyle=orthogonalEdgeStyle;rounded=0;orthogonalLoop=1;jettySize=auto;html=1;" parent="1" source="GoEXQKf4y78XVW4AcF5e-9" target="GoEXQKf4y78XVW4AcF5e-11" edge="1">
          <mxGeometry relative="1" as="geometry" />
        </mxCell>
        <mxCell id="GoEXQKf4y78XVW4AcF5e-9" value="&lt;font style=&quot;font-size: 12px;&quot;&gt;serial port&lt;br&gt;&lt;/font&gt;" style="ellipse;whiteSpace=wrap;html=1;fillColor=#d5e8d4;strokeColor=#82b366;" parent="1" vertex="1">
          <mxGeometry x="1030" y="510.2" width="100" height="40" as="geometry" />
        </mxCell>
        <mxCell id="GoEXQKf4y78XVW4AcF5e-11" value="arduino_skript" style="rounded=0;whiteSpace=wrap;html=1;fillColor=#d5e8d4;strokeColor=#82b366;" parent="1" vertex="1">
          <mxGeometry x="1020" y="590" width="120" height="60" as="geometry" />
        </mxCell>
      </root>
    </mxGraphModel>
  </diagram>
  <diagram id="ARGsO5GUI5ILtpOGTFK-" name="C4-Context">
    <mxGraphModel dx="940" dy="643" grid="1" gridSize="10" guides="1" tooltips="1" connect="1" arrows="1" fold="1" page="1" pageScale="1" pageWidth="1169" pageHeight="827" math="0" shadow="0">
      <root>
        <mxCell id="0" />
        <mxCell id="1" parent="0" />
        <mxCell id="2rr891Mv6mzHr4BnIQ5A-8" style="edgeStyle=orthogonalEdgeStyle;rounded=0;orthogonalLoop=1;jettySize=auto;html=1;dashed=1;dashPattern=8 8;" parent="1" source="2rr891Mv6mzHr4BnIQ5A-1" target="2rr891Mv6mzHr4BnIQ5A-7" edge="1">
          <mxGeometry relative="1" as="geometry" />
        </mxCell>
        <mxCell id="2rr891Mv6mzHr4BnIQ5A-9" value="Uses" style="edgeLabel;html=1;align=center;verticalAlign=middle;resizable=0;points=[];fontSize=17;" parent="2rr891Mv6mzHr4BnIQ5A-8" vertex="1" connectable="0">
          <mxGeometry x="-0.1211" y="4" relative="1" as="geometry">
            <mxPoint x="2" y="-6" as="offset" />
          </mxGeometry>
        </mxCell>
        <object placeholders="1" c4Name="User" c4Type="Person" c4Description="Person the Roboter is following" label="&lt;font style=&quot;font-size: 16px&quot;&gt;&lt;b&gt;%c4Name%&lt;/b&gt;&lt;/font&gt;&lt;div&gt;[%c4Type%]&lt;/div&gt;&lt;br&gt;&lt;div&gt;&lt;font style=&quot;font-size: 11px&quot;&gt;&lt;font color=&quot;#cccccc&quot;&gt;%c4Description%&lt;/font&gt;&lt;/div&gt;" hight="" id="2rr891Mv6mzHr4BnIQ5A-1">
          <mxCell style="html=1;fontSize=11;dashed=0;whiteSpace=wrap;fillColor=#083F75;strokeColor=#06315C;fontColor=#ffffff;shape=mxgraph.c4.person2;align=center;metaEdit=1;points=[[0.5,0,0],[1,0.5,0],[1,0.75,0],[0.75,1,0],[0.5,1,0],[0.25,1,0],[0,0.75,0],[0,0.5,0]];resizable=0;" parent="1" vertex="1">
            <mxGeometry x="40" y="120" width="200" height="180" as="geometry" />
          </mxCell>
        </object>
        <object placeholders="1" c4Name="Follow-me Robotter" c4Type="Robotter" c4Description="" label="&lt;font style=&quot;font-size: 16px&quot;&gt;&lt;b&gt;%c4Name%&lt;/b&gt;&lt;/font&gt;&lt;div&gt;[%c4Type%]&lt;/div&gt;&lt;br&gt;&lt;div&gt;&lt;font style=&quot;font-size: 11px&quot;&gt;&lt;font color=&quot;#cccccc&quot;&gt;%c4Description%&lt;/font&gt;&lt;/div&gt;" id="2rr891Mv6mzHr4BnIQ5A-4">
          <mxCell style="rounded=1;whiteSpace=wrap;html=1;labelBackgroundColor=none;fillColor=#1061B0;fontColor=#ffffff;align=center;arcSize=10;strokeColor=#0D5091;metaEdit=1;resizable=0;points=[[0.25,0,0],[0.5,0,0],[0.75,0,0],[1,0.25,0],[1,0.5,0],[1,0.75,0],[0.75,1,0],[0.5,1,0],[0.25,1,0],[0,0.75,0],[0,0.5,0],[0,0.25,0]];" parent="1" vertex="1">
            <mxGeometry x="440" y="400" width="240" height="120" as="geometry" />
          </mxCell>
        </object>
        <object placeholders="1" c4Name="[System Context] Follow-me" c4Type="ContainerScopeBoundary" c4Description="general System overview" label="&lt;font style=&quot;font-size: 16px&quot;&gt;&lt;b&gt;&lt;div style=&quot;text-align: left&quot;&gt;%c4Name%&lt;/div&gt;&lt;/b&gt;&lt;/font&gt;&lt;div style=&quot;text-align: left&quot;&gt;%c4Description%&lt;/div&gt;" id="2rr891Mv6mzHr4BnIQ5A-6">
          <mxCell style="text;html=1;strokeColor=none;fillColor=none;align=left;verticalAlign=top;whiteSpace=wrap;rounded=0;metaEdit=1;allowArrows=0;resizable=1;rotatable=0;connectable=0;recursiveResize=0;expand=0;pointerEvents=0;points=[[0.25,0,0],[0.5,0,0],[0.75,0,0],[1,0.25,0],[1,0.5,0],[1,0.75,0],[0.75,1,0],[0.5,1,0],[0.25,1,0],[0,0.75,0],[0,0.5,0],[0,0.25,0]];" parent="1" vertex="1">
            <mxGeometry x="40" y="40" width="260" height="40" as="geometry" />
          </mxCell>
        </object>
        <object placeholders="1" c4Name="Follow-me control center" c4Type="Wesite" c4Description="Web overlay to monitor and control the robot" label="&lt;font style=&quot;font-size: 16px&quot;&gt;&lt;b&gt;%c4Name%&lt;/b&gt;&lt;/font&gt;&lt;div&gt;[%c4Type%]&lt;/div&gt;&lt;br&gt;&lt;div&gt;&lt;font style=&quot;font-size: 11px&quot;&gt;&lt;font color=&quot;#cccccc&quot;&gt;%c4Description%&lt;/font&gt;&lt;/div&gt;" id="2rr891Mv6mzHr4BnIQ5A-7">
          <mxCell style="rounded=1;whiteSpace=wrap;html=1;labelBackgroundColor=none;fillColor=#1061B0;fontColor=#ffffff;align=center;arcSize=10;strokeColor=#0D5091;metaEdit=1;resizable=0;points=[[0.25,0,0],[0.5,0,0],[0.75,0,0],[1,0.25,0],[1,0.5,0],[1,0.75,0],[0.75,1,0],[0.5,1,0],[0.25,1,0],[0,0.75,0],[0,0.5,0],[0,0.25,0]];" parent="1" vertex="1">
            <mxGeometry x="440" y="150" width="240" height="120" as="geometry" />
          </mxCell>
        </object>
        <mxCell id="2rr891Mv6mzHr4BnIQ5A-10" style="edgeStyle=orthogonalEdgeStyle;rounded=0;orthogonalLoop=1;jettySize=auto;html=1;dashed=1;dashPattern=8 8;exitX=0.25;exitY=0;exitDx=0;exitDy=0;exitPerimeter=0;entryX=0.25;entryY=1;entryDx=0;entryDy=0;entryPerimeter=0;" parent="1" source="2rr891Mv6mzHr4BnIQ5A-4" target="2rr891Mv6mzHr4BnIQ5A-7" edge="1">
          <mxGeometry relative="1" as="geometry">
            <mxPoint x="320" y="320" as="sourcePoint" />
            <mxPoint x="520" y="320" as="targetPoint" />
          </mxGeometry>
        </mxCell>
        <mxCell id="2rr891Mv6mzHr4BnIQ5A-11" value="Hosts" style="edgeLabel;html=1;align=center;verticalAlign=middle;resizable=0;points=[];fontSize=17;" parent="2rr891Mv6mzHr4BnIQ5A-10" vertex="1" connectable="0">
          <mxGeometry x="-0.1211" y="4" relative="1" as="geometry">
            <mxPoint x="2" y="-13" as="offset" />
          </mxGeometry>
        </mxCell>
        <mxCell id="2rr891Mv6mzHr4BnIQ5A-12" style="edgeStyle=orthogonalEdgeStyle;rounded=0;orthogonalLoop=1;jettySize=auto;html=1;dashed=1;dashPattern=8 8;exitX=0.75;exitY=1;exitDx=0;exitDy=0;exitPerimeter=0;entryX=0.75;entryY=0;entryDx=0;entryDy=0;entryPerimeter=0;" parent="1" source="2rr891Mv6mzHr4BnIQ5A-7" target="2rr891Mv6mzHr4BnIQ5A-4" edge="1">
          <mxGeometry relative="1" as="geometry">
            <mxPoint x="260" y="230" as="sourcePoint" />
            <mxPoint x="460" y="230" as="targetPoint" />
          </mxGeometry>
        </mxCell>
        <mxCell id="2rr891Mv6mzHr4BnIQ5A-13" value="Sends control Signals" style="edgeLabel;html=1;align=center;verticalAlign=middle;resizable=0;points=[];fontSize=17;" parent="2rr891Mv6mzHr4BnIQ5A-12" vertex="1" connectable="0">
          <mxGeometry x="-0.1211" y="4" relative="1" as="geometry">
            <mxPoint x="-4" y="3" as="offset" />
          </mxGeometry>
        </mxCell>
        <mxCell id="2rr891Mv6mzHr4BnIQ5A-14" style="rounded=0;orthogonalLoop=1;jettySize=auto;html=1;dashed=1;dashPattern=8 8;exitX=0;exitY=0.5;exitDx=0;exitDy=0;exitPerimeter=0;" parent="1" source="2rr891Mv6mzHr4BnIQ5A-4" target="2rr891Mv6mzHr4BnIQ5A-1" edge="1">
          <mxGeometry relative="1" as="geometry">
            <mxPoint x="270" y="240" as="sourcePoint" />
            <mxPoint x="470" y="240" as="targetPoint" />
          </mxGeometry>
        </mxCell>
        <mxCell id="2rr891Mv6mzHr4BnIQ5A-15" value="Follows" style="edgeLabel;html=1;align=center;verticalAlign=middle;resizable=0;points=[];fontSize=17;" parent="2rr891Mv6mzHr4BnIQ5A-14" vertex="1" connectable="0">
          <mxGeometry x="-0.1211" y="4" relative="1" as="geometry">
            <mxPoint x="-19" y="-20" as="offset" />
          </mxGeometry>
        </mxCell>
      </root>
    </mxGraphModel>
  </diagram>
  <diagram id="1XwyQQSAb3iFbB40Min-" name="C4-Container">
    <mxGraphModel dx="1446" dy="989" grid="1" gridSize="10" guides="1" tooltips="1" connect="1" arrows="1" fold="1" page="1" pageScale="1" pageWidth="1169" pageHeight="827" math="0" shadow="0">
      <root>
        <mxCell id="0" />
        <mxCell id="1" parent="0" />
        <object placeholders="1" c4Name="[Containers] Follow-me Robotter" c4Type="ContainerDiagramTitle" c4Description="Diagram short description" label="&lt;font style=&quot;font-size: 16px&quot;&gt;&lt;b&gt;&lt;div style=&quot;text-align: left&quot;&gt;%c4Name%&lt;/div&gt;&lt;/b&gt;&lt;/font&gt;&lt;div style=&quot;text-align: left&quot;&gt;%c4Description%&lt;/div&gt;" id="9hsVSm5cRBuwdb_QTALt-1">
          <mxCell style="text;html=1;strokeColor=none;fillColor=none;align=left;verticalAlign=top;whiteSpace=wrap;rounded=0;metaEdit=1;allowArrows=0;resizable=1;rotatable=0;connectable=0;recursiveResize=0;expand=0;pointerEvents=0;points=[[0.25,0,0],[0.5,0,0],[0.75,0,0],[1,0.25,0],[1,0.5,0],[1,0.75,0],[0.75,1,0],[0.5,1,0],[0.25,1,0],[0,0.75,0],[0,0.5,0],[0,0.25,0]];" parent="1" vertex="1">
            <mxGeometry x="39" y="40" width="260" height="40" as="geometry" />
          </mxCell>
        </object>
        <mxCell id="6p3vNgX1on0dn1jhGvZb-1" style="edgeStyle=orthogonalEdgeStyle;rounded=0;orthogonalLoop=1;jettySize=auto;html=1;dashed=1;dashPattern=8 8;" parent="1" source="6p3vNgX1on0dn1jhGvZb-3" target="yeCeJuN466o3hh8DGoZ1-3" edge="1">
          <mxGeometry relative="1" as="geometry">
            <mxPoint x="449" y="320" as="targetPoint" />
          </mxGeometry>
        </mxCell>
        <mxCell id="6p3vNgX1on0dn1jhGvZb-2" value="Uses" style="edgeLabel;html=1;align=center;verticalAlign=middle;resizable=0;points=[];fontSize=17;" parent="6p3vNgX1on0dn1jhGvZb-1" vertex="1" connectable="0">
          <mxGeometry x="-0.1211" y="4" relative="1" as="geometry">
            <mxPoint x="2" y="-6" as="offset" />
          </mxGeometry>
        </mxCell>
        <object placeholders="1" c4Name="User" c4Type="Person" c4Description="Person the Roboter is following" label="&lt;font style=&quot;font-size: 16px&quot;&gt;&lt;b&gt;%c4Name%&lt;/b&gt;&lt;/font&gt;&lt;div&gt;[%c4Type%]&lt;/div&gt;&lt;br&gt;&lt;div&gt;&lt;font style=&quot;font-size: 11px&quot;&gt;&lt;font color=&quot;#cccccc&quot;&gt;%c4Description%&lt;/font&gt;&lt;/div&gt;" hight="" id="6p3vNgX1on0dn1jhGvZb-3">
          <mxCell style="html=1;fontSize=11;dashed=0;whiteSpace=wrap;fillColor=#083F75;strokeColor=#06315C;fontColor=#ffffff;shape=mxgraph.c4.person2;align=center;metaEdit=1;points=[[0.5,0,0],[1,0.5,0],[1,0.75,0],[0.75,1,0],[0.5,1,0],[0.25,1,0],[0,0.75,0],[0,0.5,0]];resizable=0;" parent="1" vertex="1">
            <mxGeometry x="900" y="563" width="200" height="180" as="geometry" />
          </mxCell>
        </object>
        <mxCell id="6p3vNgX1on0dn1jhGvZb-10" style="rounded=0;orthogonalLoop=1;jettySize=auto;html=1;dashed=1;dashPattern=8 8;entryX=0;entryY=0.5;entryDx=0;entryDy=0;entryPerimeter=0;edgeStyle=orthogonalEdgeStyle;" parent="1" target="6p3vNgX1on0dn1jhGvZb-3" edge="1">
          <mxGeometry relative="1" as="geometry">
            <mxPoint x="680" y="350" as="sourcePoint" />
            <mxPoint x="479" y="350" as="targetPoint" />
            <Array as="points">
              <mxPoint x="680" y="351" />
              <mxPoint x="850" y="351" />
              <mxPoint x="850" y="653" />
            </Array>
          </mxGeometry>
        </mxCell>
        <mxCell id="6p3vNgX1on0dn1jhGvZb-11" value="Calculates Posittion" style="edgeLabel;html=1;align=center;verticalAlign=middle;resizable=0;points=[];fontSize=17;" parent="6p3vNgX1on0dn1jhGvZb-10" vertex="1" connectable="0">
          <mxGeometry x="-0.1211" y="4" relative="1" as="geometry">
            <mxPoint x="-4" y="86" as="offset" />
          </mxGeometry>
        </mxCell>
        <object placeholders="1" c4Name="Follow-me Robotter" c4Type="SystemScopeBoundary" c4Application="Robotter" label="&lt;font style=&quot;font-size: 16px&quot;&gt;&lt;b&gt;&lt;div style=&quot;text-align: left&quot;&gt;%c4Name%&lt;/div&gt;&lt;/b&gt;&lt;/font&gt;&lt;div style=&quot;text-align: left&quot;&gt;[%c4Application%]&lt;/div&gt;" id="6p3vNgX1on0dn1jhGvZb-13">
          <mxCell style="rounded=1;fontSize=11;whiteSpace=wrap;html=1;dashed=1;arcSize=20;fillColor=none;strokeColor=#666666;fontColor=#333333;labelBackgroundColor=none;align=left;verticalAlign=bottom;labelBorderColor=none;spacingTop=0;spacing=10;dashPattern=8 4;metaEdit=1;rotatable=0;perimeter=rectanglePerimeter;noLabel=0;labelPadding=0;allowArrows=0;connectable=0;expand=0;recursiveResize=0;editable=1;pointerEvents=0;absoluteArcSize=1;points=[[0.25,0,0],[0.5,0,0],[0.75,0,0],[1,0.25,0],[1,0.5,0],[1,0.75,0],[0.75,1,0],[0.5,1,0],[0.25,1,0],[0,0.75,0],[0,0.5,0],[0,0.25,0]];" parent="1" vertex="1">
            <mxGeometry x="39" y="100" width="681" height="820" as="geometry" />
          </mxCell>
        </object>
        <mxCell id="TcigpoO3t363Pgdh24Dw-3" style="shape=connector;rounded=0;orthogonalLoop=1;jettySize=auto;html=1;exitX=1;exitY=0.25;exitDx=0;exitDy=0;exitPerimeter=0;dashed=1;dashPattern=12 12;labelBackgroundColor=default;strokeColor=default;align=center;verticalAlign=middle;fontFamily=Helvetica;fontSize=11;fontColor=default;endArrow=classic;entryX=0;entryY=0.25;entryDx=0;entryDy=0;entryPerimeter=0;edgeStyle=orthogonalEdgeStyle;" parent="1" source="C5z4QkjmEv0Da6YsSVDD-1" target="yeCeJuN466o3hh8DGoZ1-3" edge="1">
          <mxGeometry relative="1" as="geometry" />
        </mxCell>
        <mxCell id="TcigpoO3t363Pgdh24Dw-5" value="Hosts" style="edgeLabel;html=1;align=center;verticalAlign=middle;resizable=0;points=[];fontSize=16;fontFamily=Helvetica;fontColor=default;" parent="TcigpoO3t363Pgdh24Dw-3" vertex="1" connectable="0">
          <mxGeometry x="-0.062" y="1" relative="1" as="geometry">
            <mxPoint x="12" y="-11" as="offset" />
          </mxGeometry>
        </mxCell>
        <mxCell id="bLK3U9wtxp-qgOF2i2NW-5" style="edgeStyle=orthogonalEdgeStyle;shape=connector;rounded=0;orthogonalLoop=1;jettySize=auto;html=1;exitX=0.5;exitY=1;exitDx=0;exitDy=0;exitPerimeter=0;dashed=1;dashPattern=12 12;labelBackgroundColor=default;strokeColor=default;align=center;verticalAlign=middle;fontFamily=Helvetica;fontSize=11;fontColor=default;endArrow=classic;entryX=0.5;entryY=0;entryDx=0;entryDy=0;entryPerimeter=0;" parent="1" source="C5z4QkjmEv0Da6YsSVDD-1" target="kSL9Ibzvx19967Wj7dWA-1" edge="1">
          <mxGeometry relative="1" as="geometry">
            <mxPoint x="559" y="470" as="targetPoint" />
          </mxGeometry>
        </mxCell>
        <mxCell id="bLK3U9wtxp-qgOF2i2NW-6" value="Sends controll Signals" style="edgeLabel;html=1;align=center;verticalAlign=middle;resizable=0;points=[];fontSize=16;fontFamily=Helvetica;fontColor=default;" parent="bLK3U9wtxp-qgOF2i2NW-5" vertex="1" connectable="0">
          <mxGeometry x="-0.1619" y="-1" relative="1" as="geometry">
            <mxPoint as="offset" />
          </mxGeometry>
        </mxCell>
        <mxCell id="U_bQnCr_Um048-q2Ljfr-2" style="edgeStyle=orthogonalEdgeStyle;shape=connector;rounded=0;orthogonalLoop=1;jettySize=auto;html=1;exitX=0.5;exitY=0;exitDx=0;exitDy=0;exitPerimeter=0;dashed=1;dashPattern=12 12;labelBackgroundColor=default;strokeColor=default;align=center;verticalAlign=middle;fontFamily=Helvetica;fontSize=11;fontColor=default;endArrow=classic;entryX=0.5;entryY=1;entryDx=0;entryDy=0;entryPerimeter=0;" parent="1" source="C5z4QkjmEv0Da6YsSVDD-1" target="U_bQnCr_Um048-q2Ljfr-1" edge="1">
          <mxGeometry relative="1" as="geometry">
            <mxPoint x="559" y="240" as="targetPoint" />
          </mxGeometry>
        </mxCell>
        <mxCell id="U_bQnCr_Um048-q2Ljfr-3" value="Uses" style="edgeLabel;html=1;align=center;verticalAlign=middle;resizable=0;points=[];fontSize=16;fontFamily=Helvetica;fontColor=default;" parent="U_bQnCr_Um048-q2Ljfr-2" vertex="1" connectable="0">
          <mxGeometry x="0.4497" relative="1" as="geometry">
            <mxPoint y="10" as="offset" />
          </mxGeometry>
        </mxCell>
        <object placeholders="1" c4Name="camera_package" c4Type="Package" c4Technology="Python, Flask, JavaScript" c4Description="Contains All software related to Image Recognition, path finding, following the person and hosting the web server." label="&lt;font style=&quot;font-size: 16px&quot;&gt;&lt;b&gt;%c4Name%&lt;/b&gt;&lt;/font&gt;&lt;div&gt;[%c4Type%: %c4Technology%]&lt;/div&gt;&lt;br&gt;&lt;div&gt;&lt;font style=&quot;font-size: 11px&quot;&gt;&lt;font color=&quot;#E6E6E6&quot;&gt;%c4Description%&lt;/font&gt;&lt;/div&gt;" id="C5z4QkjmEv0Da6YsSVDD-1">
          <mxCell style="rounded=1;whiteSpace=wrap;html=1;fontSize=11;labelBackgroundColor=none;fillColor=#23A2D9;fontColor=#ffffff;align=center;arcSize=10;strokeColor=#0E7DAD;metaEdit=1;resizable=0;points=[[0.25,0,0],[0.5,0,0],[0.75,0,0],[1,0.25,0],[1,0.5,0],[1,0.75,0],[0.75,1,0],[0.5,1,0],[0.25,1,0],[0,0.75,0],[0,0.5,0],[0,0.25,0]];" parent="1" vertex="1">
            <mxGeometry x="439" y="277.19" width="240" height="120" as="geometry" />
          </mxCell>
        </object>
        <mxCell id="bLK3U9wtxp-qgOF2i2NW-1" style="edgeStyle=orthogonalEdgeStyle;shape=connector;rounded=0;orthogonalLoop=1;jettySize=auto;html=1;exitX=1;exitY=0.5;exitDx=0;exitDy=0;exitPerimeter=0;dashed=1;dashPattern=12 12;labelBackgroundColor=default;strokeColor=default;align=center;verticalAlign=middle;fontFamily=Helvetica;fontSize=11;fontColor=default;endArrow=classic;" parent="1" source="WC3Qkf9sRY1N4DMf21WO-1" target="C5z4QkjmEv0Da6YsSVDD-1" edge="1">
          <mxGeometry relative="1" as="geometry" />
        </mxCell>
        <mxCell id="bLK3U9wtxp-qgOF2i2NW-2" value="Hosts" style="edgeLabel;html=1;align=center;verticalAlign=middle;resizable=0;points=[];fontSize=16;fontFamily=Helvetica;fontColor=default;" parent="bLK3U9wtxp-qgOF2i2NW-1" vertex="1" connectable="0">
          <mxGeometry x="-0.081" y="2" relative="1" as="geometry">
            <mxPoint x="-25" y="-8" as="offset" />
          </mxGeometry>
        </mxCell>
        <object placeholders="1" c4Name="Ros 2 humble" c4Type="Framework" c4Description="Framework to host and manage comunication of the difrent software systems" label="&lt;font style=&quot;font-size: 16px&quot;&gt;&lt;b&gt;%c4Name%&lt;/b&gt;&lt;/font&gt;&lt;div&gt;[%c4Type%]&lt;/div&gt;&lt;br&gt;&lt;div&gt;&lt;font style=&quot;font-size: 11px&quot;&gt;&lt;font color=&quot;#cccccc&quot;&gt;%c4Description%&lt;/font&gt;&lt;/div&gt;" id="WC3Qkf9sRY1N4DMf21WO-1">
          <mxCell style="rounded=1;whiteSpace=wrap;html=1;labelBackgroundColor=none;fillColor=#8C8496;fontColor=#ffffff;align=center;arcSize=10;strokeColor=#736782;metaEdit=1;resizable=0;points=[[0.25,0,0],[0.5,0,0],[0.75,0,0],[1,0.25,0],[1,0.5,0],[1,0.75,0],[0.75,1,0],[0.5,1,0],[0.25,1,0],[0,0.75,0],[0,0.5,0],[0,0.25,0]];" parent="1" vertex="1">
            <mxGeometry x="59" y="277.19" width="240" height="120" as="geometry" />
          </mxCell>
        </object>
        <mxCell id="6UBLajB0F3jUE7JPR9cB-2" style="edgeStyle=orthogonalEdgeStyle;rounded=0;orthogonalLoop=1;jettySize=auto;html=1;exitX=0.5;exitY=0;exitDx=0;exitDy=0;exitPerimeter=0;dashed=1;dashPattern=12 12;" parent="1" source="yeCeJuN466o3hh8DGoZ1-1" target="WC3Qkf9sRY1N4DMf21WO-1" edge="1">
          <mxGeometry relative="1" as="geometry" />
        </mxCell>
        <mxCell id="6UBLajB0F3jUE7JPR9cB-5" value="runs" style="edgeLabel;html=1;align=center;verticalAlign=middle;resizable=0;points=[];fontSize=16;fontFamily=Helvetica;fontColor=default;" parent="6UBLajB0F3jUE7JPR9cB-2" vertex="1" connectable="0">
          <mxGeometry x="-0.0509" relative="1" as="geometry">
            <mxPoint as="offset" />
          </mxGeometry>
        </mxCell>
        <object placeholders="1" c4Name="Ubuntu Server 22.04.03 LTS (64 bit)" c4Type="Operating System" c4Description="Underlying Linux distro" label="&lt;font style=&quot;font-size: 16px&quot;&gt;&lt;b&gt;%c4Name%&lt;/b&gt;&lt;/font&gt;&lt;div&gt;[%c4Type%]&lt;/div&gt;&lt;br&gt;&lt;div&gt;&lt;font style=&quot;font-size: 11px&quot;&gt;&lt;font color=&quot;#cccccc&quot;&gt;%c4Description%&lt;/font&gt;&lt;/div&gt;" id="yeCeJuN466o3hh8DGoZ1-1">
          <mxCell style="rounded=1;whiteSpace=wrap;html=1;labelBackgroundColor=none;fillColor=#8C8496;fontColor=#ffffff;align=center;arcSize=10;strokeColor=#736782;metaEdit=1;resizable=0;points=[[0.25,0,0],[0.5,0,0],[0.75,0,0],[1,0.25,0],[1,0.5,0],[1,0.75,0],[0.75,1,0],[0.5,1,0],[0.25,1,0],[0,0.75,0],[0,0.5,0],[0,0.25,0]];" parent="1" vertex="1">
            <mxGeometry x="59" y="457.19" width="240" height="120" as="geometry" />
          </mxCell>
        </object>
        <mxCell id="6UBLajB0F3jUE7JPR9cB-3" style="edgeStyle=orthogonalEdgeStyle;shape=connector;rounded=0;orthogonalLoop=1;jettySize=auto;html=1;exitX=0.5;exitY=0;exitDx=0;exitDy=0;exitPerimeter=0;dashed=1;dashPattern=12 12;labelBackgroundColor=default;strokeColor=default;align=center;verticalAlign=middle;fontFamily=Helvetica;fontSize=11;fontColor=default;endArrow=classic;" parent="1" source="yeCeJuN466o3hh8DGoZ1-2" target="yeCeJuN466o3hh8DGoZ1-1" edge="1">
          <mxGeometry relative="1" as="geometry" />
        </mxCell>
        <mxCell id="6UBLajB0F3jUE7JPR9cB-4" style="edgeStyle=orthogonalEdgeStyle;shape=connector;rounded=0;orthogonalLoop=1;jettySize=auto;html=1;dashed=1;dashPattern=12 12;labelBackgroundColor=default;strokeColor=default;align=center;verticalAlign=middle;fontFamily=Helvetica;fontSize=11;fontColor=default;endArrow=classic;" parent="1" source="yeCeJuN466o3hh8DGoZ1-2" target="6UBLajB0F3jUE7JPR9cB-1" edge="1">
          <mxGeometry relative="1" as="geometry" />
        </mxCell>
        <object placeholders="1" c4Name="Jetson Nano" c4Type="Hardware component" c4Description="" label="&lt;font style=&quot;font-size: 16px&quot;&gt;&lt;b&gt;%c4Name%&lt;/b&gt;&lt;/font&gt;&lt;div&gt;[%c4Type%]&lt;/div&gt;&lt;br&gt;&lt;div&gt;&lt;font style=&quot;font-size: 11px&quot;&gt;&lt;font color=&quot;#cccccc&quot;&gt;%c4Description%&lt;/font&gt;&lt;/div&gt;" id="yeCeJuN466o3hh8DGoZ1-2">
          <mxCell style="rounded=1;whiteSpace=wrap;html=1;labelBackgroundColor=none;fillColor=#2D2B30;fontColor=#ffffff;align=center;arcSize=10;strokeColor=#736782;metaEdit=1;resizable=0;points=[[0.25,0,0],[0.5,0,0],[0.75,0,0],[1,0.25,0],[1,0.5,0],[1,0.75,0],[0.75,1,0],[0.5,1,0],[0.25,1,0],[0,0.75,0],[0,0.5,0],[0,0.25,0]];" parent="1" vertex="1">
            <mxGeometry x="59" y="637.19" width="240" height="120" as="geometry" />
          </mxCell>
        </object>
        <object placeholders="1" c4Type="Follow-me control center" c4Container="Website" c4Technology="JavaScript, html." c4Description="Web overlay to monitor and control the robot" label="&lt;font style=&quot;font-size: 16px&quot;&gt;&lt;b&gt;%c4Type%&lt;/b&gt;&lt;/font&gt;&lt;div&gt;[%c4Container%:&amp;nbsp;%c4Technology%]&lt;/div&gt;&lt;br&gt;&lt;div&gt;&lt;font style=&quot;font-size: 11px&quot;&gt;&lt;font color=&quot;#E6E6E6&quot;&gt;%c4Description%&lt;/font&gt;&lt;/div&gt;" id="yeCeJuN466o3hh8DGoZ1-3">
          <mxCell style="shape=mxgraph.c4.webBrowserContainer2;whiteSpace=wrap;html=1;boundedLbl=1;rounded=0;labelBackgroundColor=none;strokeColor=#118ACD;fillColor=#23A2D9;strokeColor=#118ACD;strokeColor2=#0E7DAD;fontSize=12;fontColor=#ffffff;align=center;metaEdit=1;points=[[0.5,0,0],[1,0.25,0],[1,0.5,0],[1,0.75,0],[0.5,1,0],[0,0.75,0],[0,0.5,0],[0,0.25,0]];resizable=0;" parent="1" vertex="1">
            <mxGeometry x="880" y="267.19" width="240" height="160" as="geometry" />
          </mxCell>
        </object>
        <mxCell id="bLK3U9wtxp-qgOF2i2NW-7" style="shape=connector;rounded=0;orthogonalLoop=1;jettySize=auto;html=1;exitX=1;exitY=0.5;exitDx=0;exitDy=0;exitPerimeter=0;dashed=1;dashPattern=12 12;labelBackgroundColor=default;strokeColor=default;align=center;verticalAlign=middle;fontFamily=Helvetica;fontSize=11;fontColor=default;endArrow=classic;entryX=0;entryY=0.75;entryDx=0;entryDy=0;entryPerimeter=0;edgeStyle=orthogonalEdgeStyle;" parent="1" source="6UBLajB0F3jUE7JPR9cB-1" target="6p3vNgX1on0dn1jhGvZb-3" edge="1">
          <mxGeometry relative="1" as="geometry" />
        </mxCell>
        <mxCell id="bLK3U9wtxp-qgOF2i2NW-8" value="Follows" style="edgeLabel;html=1;align=center;verticalAlign=middle;resizable=0;points=[];fontSize=16;fontFamily=Helvetica;fontColor=default;" parent="bLK3U9wtxp-qgOF2i2NW-7" vertex="1" connectable="0">
          <mxGeometry x="0.0198" y="-1" relative="1" as="geometry">
            <mxPoint x="14" y="-19" as="offset" />
          </mxGeometry>
        </mxCell>
        <object placeholders="1" c4Name="Arduino" c4Type="Hardwear Component" c4Description="" label="&lt;font style=&quot;font-size: 16px&quot;&gt;&lt;b&gt;%c4Name%&lt;/b&gt;&lt;/font&gt;&lt;div&gt;[%c4Type%]&lt;/div&gt;&lt;br&gt;&lt;div&gt;&lt;font style=&quot;font-size: 11px&quot;&gt;&lt;font color=&quot;#cccccc&quot;&gt;%c4Description%&lt;/font&gt;&lt;/div&gt;" id="6UBLajB0F3jUE7JPR9cB-1">
          <mxCell style="rounded=1;whiteSpace=wrap;html=1;labelBackgroundColor=none;fillColor=#2D2B30;fontColor=#ffffff;align=center;arcSize=10;strokeColor=#736782;metaEdit=1;resizable=0;points=[[0.25,0,0],[0.5,0,0],[0.75,0,0],[1,0.25,0],[1,0.5,0],[1,0.75,0],[0.75,1,0],[0.5,1,0],[0.25,1,0],[0,0.75,0],[0,0.5,0],[0,0.25,0]];" parent="1" vertex="1">
            <mxGeometry x="439" y="637.19" width="240" height="120" as="geometry" />
          </mxCell>
        </object>
        <mxCell id="4wvWIwb30UwbeYi2w52z-1" style="edgeStyle=orthogonalEdgeStyle;shape=connector;rounded=0;orthogonalLoop=1;jettySize=auto;html=1;dashed=1;dashPattern=12 12;labelBackgroundColor=default;strokeColor=default;align=center;verticalAlign=middle;fontFamily=Helvetica;fontSize=11;fontColor=default;endArrow=classic;" parent="1" target="6UBLajB0F3jUE7JPR9cB-1" edge="1">
          <mxGeometry relative="1" as="geometry">
            <mxPoint x="559" y="577.19" as="sourcePoint" />
          </mxGeometry>
        </mxCell>
        <mxCell id="TcigpoO3t363Pgdh24Dw-4" style="shape=connector;rounded=0;orthogonalLoop=1;jettySize=auto;html=1;exitX=-0.005;exitY=0.434;exitDx=0;exitDy=0;exitPerimeter=0;entryX=1;entryY=0.5;entryDx=0;entryDy=0;entryPerimeter=0;dashed=1;dashPattern=12 12;labelBackgroundColor=default;strokeColor=default;align=center;verticalAlign=middle;fontFamily=Helvetica;fontSize=11;fontColor=default;endArrow=classic;edgeStyle=orthogonalEdgeStyle;" parent="1" source="yeCeJuN466o3hh8DGoZ1-3" target="C5z4QkjmEv0Da6YsSVDD-1" edge="1">
          <mxGeometry relative="1" as="geometry" />
        </mxCell>
        <mxCell id="TcigpoO3t363Pgdh24Dw-6" value="Sends controll Signals" style="edgeLabel;html=1;align=center;verticalAlign=middle;resizable=0;points=[];fontSize=16;fontFamily=Helvetica;fontColor=default;" parent="TcigpoO3t363Pgdh24Dw-4" vertex="1" connectable="0">
          <mxGeometry x="0.1366" relative="1" as="geometry">
            <mxPoint x="19" y="-11" as="offset" />
          </mxGeometry>
        </mxCell>
        <object placeholders="1" c4Name="cv_bridge" c4Type="Node" c4Description="Cv Image / Ros 2 Image Converter " label="&lt;font style=&quot;font-size: 16px&quot;&gt;&lt;b&gt;%c4Name%&lt;/b&gt;&lt;/font&gt;&lt;div&gt;[%c4Type%]&lt;/div&gt;&lt;br&gt;&lt;div&gt;&lt;font style=&quot;font-size: 11px&quot;&gt;&lt;font color=&quot;#cccccc&quot;&gt;%c4Description%&lt;/font&gt;&lt;/div&gt;" id="U_bQnCr_Um048-q2Ljfr-1">
          <mxCell style="rounded=1;whiteSpace=wrap;html=1;labelBackgroundColor=none;fillColor=#8C8496;fontColor=#ffffff;align=center;arcSize=10;strokeColor=#736782;metaEdit=1;resizable=0;points=[[0.25,0,0],[0.5,0,0],[0.75,0,0],[1,0.25,0],[1,0.5,0],[1,0.75,0],[0.75,1,0],[0.5,1,0],[0.25,1,0],[0,0.75,0],[0,0.5,0],[0,0.25,0]];fontFamily=Helvetica;fontSize=11;" parent="1" vertex="1">
            <mxGeometry x="439" y="120" width="240" height="120" as="geometry" />
          </mxCell>
        </object>
        <object placeholders="1" c4Name="Camera" c4Type="Hardwear Component" c4Description="" label="&lt;font style=&quot;font-size: 16px&quot;&gt;&lt;b&gt;%c4Name%&lt;/b&gt;&lt;/font&gt;&lt;div&gt;[%c4Type%]&lt;/div&gt;&lt;br&gt;&lt;div&gt;&lt;font style=&quot;font-size: 11px&quot;&gt;&lt;font color=&quot;#cccccc&quot;&gt;%c4Description%&lt;/font&gt;&lt;/div&gt;" id="GhjbgIgFR5cHIT8KqVk4-1">
          <mxCell style="rounded=1;whiteSpace=wrap;html=1;labelBackgroundColor=none;fillColor=#2D2B30;fontColor=#ffffff;align=center;arcSize=10;strokeColor=#736782;metaEdit=1;resizable=0;points=[[0.25,0,0],[0.5,0,0],[0.75,0,0],[1,0.25,0],[1,0.5,0],[1,0.75,0],[0.75,1,0],[0.5,1,0],[0.25,1,0],[0,0.75,0],[0,0.5,0],[0,0.25,0]];" parent="1" vertex="1">
            <mxGeometry x="439" y="780" width="240" height="120" as="geometry" />
          </mxCell>
        </object>
        <mxCell id="GhjbgIgFR5cHIT8KqVk4-2" style="edgeStyle=orthogonalEdgeStyle;shape=connector;rounded=0;orthogonalLoop=1;jettySize=auto;html=1;exitX=1;exitY=0.5;exitDx=0;exitDy=0;exitPerimeter=0;entryX=0;entryY=0.5;entryDx=0;entryDy=0;entryPerimeter=0;dashed=1;dashPattern=12 12;labelBackgroundColor=default;strokeColor=default;align=center;verticalAlign=middle;fontFamily=Helvetica;fontSize=11;fontColor=default;endArrow=classic;" parent="1" source="yeCeJuN466o3hh8DGoZ1-2" target="GhjbgIgFR5cHIT8KqVk4-1" edge="1">
          <mxGeometry relative="1" as="geometry" />
        </mxCell>
        <mxCell id="GhjbgIgFR5cHIT8KqVk4-4" style="edgeStyle=orthogonalEdgeStyle;shape=connector;rounded=0;orthogonalLoop=1;jettySize=auto;html=1;exitX=1;exitY=0.75;exitDx=0;exitDy=0;exitPerimeter=0;entryX=1;entryY=0.5;entryDx=0;entryDy=0;entryPerimeter=0;dashed=1;dashPattern=12 12;labelBackgroundColor=default;strokeColor=default;align=center;verticalAlign=middle;fontFamily=Helvetica;fontSize=11;fontColor=default;endArrow=classic;" parent="1" source="C5z4QkjmEv0Da6YsSVDD-1" target="GhjbgIgFR5cHIT8KqVk4-1" edge="1">
          <mxGeometry relative="1" as="geometry" />
        </mxCell>
        <mxCell id="GhjbgIgFR5cHIT8KqVk4-5" value="Uses" style="edgeLabel;html=1;align=center;verticalAlign=middle;resizable=0;points=[];fontSize=16;fontFamily=Helvetica;fontColor=default;" parent="GhjbgIgFR5cHIT8KqVk4-4" vertex="1" connectable="0">
          <mxGeometry x="-0.0068" y="-2" relative="1" as="geometry">
            <mxPoint y="4" as="offset" />
          </mxGeometry>
        </mxCell>
        <mxCell id="RVpYJubRR9-2bCN5NXIH-1" value="" style="edgeStyle=orthogonalEdgeStyle;rounded=0;orthogonalLoop=1;jettySize=auto;html=1;" parent="1" source="kSL9Ibzvx19967Wj7dWA-1" target="6UBLajB0F3jUE7JPR9cB-1" edge="1">
          <mxGeometry relative="1" as="geometry" />
        </mxCell>
        <mxCell id="2FbXdDUMnUvCaqnZoLPH-1" value="&lt;font style=&quot;font-size: 16px;&quot;&gt;Controls&lt;/font&gt;" style="edgeLabel;html=1;align=center;verticalAlign=middle;resizable=0;points=[];" parent="RVpYJubRR9-2bCN5NXIH-1" vertex="1" connectable="0">
          <mxGeometry x="-0.1397" relative="1" as="geometry">
            <mxPoint as="offset" />
          </mxGeometry>
        </mxCell>
        <object placeholders="1" c4Name="Arduino_Skript" c4Type="Skript" c4Technology="Arduino C" c4Description="Skript running on the arduino" label="&lt;font style=&quot;font-size: 16px&quot;&gt;&lt;b&gt;%c4Name%&lt;/b&gt;&lt;/font&gt;&lt;div&gt;[%c4Type%: %c4Technology%]&lt;/div&gt;&lt;br&gt;&lt;div&gt;&lt;font style=&quot;font-size: 11px&quot;&gt;%c4Description%&lt;/font&gt;&lt;/div&gt;" id="kSL9Ibzvx19967Wj7dWA-1">
          <mxCell style="rounded=1;whiteSpace=wrap;html=1;labelBackgroundColor=none;fillColor=#63BEF2;fontColor=#ffffff;align=center;arcSize=6;strokeColor=#2086C9;metaEdit=1;resizable=0;points=[[0.25,0,0],[0.5,0,0],[0.75,0,0],[1,0.25,0],[1,0.5,0],[1,0.75,0],[0.75,1,0],[0.5,1,0],[0.25,1,0],[0,0.75,0],[0,0.5,0],[0,0.25,0]];" parent="1" vertex="1">
            <mxGeometry x="439" y="457.19" width="240" height="120" as="geometry" />
          </mxCell>
        </object>
      </root>
    </mxGraphModel>
  </diagram>
  <diagram id="yR1kB3hhFGl7YgM15c_r" name="C4-Component">
    <mxGraphModel dx="1343" dy="1746" grid="1" gridSize="10" guides="1" tooltips="1" connect="1" arrows="1" fold="1" page="1" pageScale="1" pageWidth="1169" pageHeight="827" math="0" shadow="0">
      <root>
        <mxCell id="0" />
        <mxCell id="1" parent="0" />
        <object placeholders="1" c4Name="camera_package" c4Type="ContainerScopeBoundary" c4Application="Package" label="&lt;font style=&quot;font-size: 16px&quot;&gt;&lt;b&gt;&lt;div style=&quot;text-align: left&quot;&gt;%c4Name%&lt;/div&gt;&lt;/b&gt;&lt;/font&gt;&lt;div style=&quot;text-align: left&quot;&gt;[%c4Application%]&lt;/div&gt;" id="vmyFQQeyZKzJOpyXdXTG-1">
          <mxCell style="rounded=1;fontSize=11;whiteSpace=wrap;html=1;dashed=1;arcSize=20;fillColor=none;strokeColor=#666666;fontColor=#333333;labelBackgroundColor=none;align=left;verticalAlign=bottom;labelBorderColor=none;spacingTop=0;spacing=10;dashPattern=8 4;metaEdit=1;rotatable=0;perimeter=rectanglePerimeter;noLabel=0;labelPadding=0;allowArrows=0;connectable=0;expand=0;recursiveResize=0;editable=1;pointerEvents=0;absoluteArcSize=1;points=[[0.25,0,0],[0.5,0,0],[0.75,0,0],[1,0.25,0],[1,0.5,0],[1,0.75,0],[0.75,1,0],[0.5,1,0],[0.25,1,0],[0,0.75,0],[0,0.5,0],[0,0.25,0]];fontFamily=Helvetica;" parent="1" vertex="1">
            <mxGeometry x="40" y="-560" width="960" height="600" as="geometry" />
          </mxCell>
        </object>
        <object placeholders="1" c4Name="[Components] camera_package / ros2_for_waveshare_alphabot2" c4Type="ContainerDiagramTitle" c4Description="Diagram short description" label="&lt;font style=&quot;font-size: 16px&quot;&gt;&lt;b&gt;&lt;div style=&quot;text-align: left&quot;&gt;%c4Name%&lt;/div&gt;&lt;/b&gt;&lt;/font&gt;&lt;div style=&quot;text-align: left&quot;&gt;%c4Description%&lt;/div&gt;" id="vQmX57NbaCswW7sS95hj-1">
          <mxCell style="text;html=1;strokeColor=none;fillColor=none;align=left;verticalAlign=top;whiteSpace=wrap;rounded=0;metaEdit=1;allowArrows=0;resizable=1;rotatable=0;connectable=0;recursiveResize=0;expand=0;pointerEvents=0;points=[[0.25,0,0],[0.5,0,0],[0.75,0,0],[1,0.25,0],[1,0.5,0],[1,0.75,0],[0.75,1,0],[0.5,1,0],[0.25,1,0],[0,0.75,0],[0,0.5,0],[0,0.25,0]];fontSize=11;fontFamily=Helvetica;fontColor=default;" parent="1" vertex="1">
            <mxGeometry x="40" y="-800" width="440" height="50" as="geometry" />
          </mxCell>
        </object>
        <object placeholders="1" c4Name="movement_control" c4Type="Node" c4Technology="Python" c4Description="Recives Position data and calculates the movements needed to Follow the Person" label="&lt;font style=&quot;font-size: 16px&quot;&gt;&lt;b&gt;%c4Name%&lt;/b&gt;&lt;/font&gt;&lt;div&gt;[%c4Type%: %c4Technology%]&lt;/div&gt;&lt;br&gt;&lt;div&gt;&lt;font style=&quot;font-size: 11px&quot;&gt;%c4Description%&lt;/font&gt;&lt;/div&gt;" id="q42hmGwi5cYJWaim7Y0--1">
          <mxCell style="rounded=1;whiteSpace=wrap;html=1;labelBackgroundColor=none;fillColor=#63BEF2;fontColor=#ffffff;align=center;arcSize=6;strokeColor=#2086C9;metaEdit=1;resizable=0;points=[[0.25,0,0],[0.5,0,0],[0.75,0,0],[1,0.25,0],[1,0.5,0],[1,0.75,0],[0.75,1,0],[0.5,1,0],[0.25,1,0],[0,0.75,0],[0,0.5,0],[0,0.25,0]];fontFamily=Helvetica;fontSize=11;" parent="1" vertex="1">
            <mxGeometry x="650" y="-270" width="240" height="120" as="geometry" />
          </mxCell>
        </object>
        <mxCell id="F1IsbQdLiQYC1FtrxkXt-11" style="edgeStyle=orthogonalEdgeStyle;shape=connector;rounded=0;orthogonalLoop=1;jettySize=auto;html=1;dashed=1;dashPattern=12 12;labelBackgroundColor=default;strokeColor=default;align=center;verticalAlign=middle;fontFamily=Helvetica;fontSize=11;fontColor=default;endArrow=classic;exitX=1;exitY=0.5;exitDx=0;exitDy=0;exitPerimeter=0;" parent="1" source="RzVPiNrN5zWxLB_qvmUw-1" target="F1IsbQdLiQYC1FtrxkXt-13" edge="1">
          <mxGeometry relative="1" as="geometry">
            <mxPoint x="180" y="160" as="sourcePoint" />
          </mxGeometry>
        </mxCell>
        <mxCell id="F1IsbQdLiQYC1FtrxkXt-13" value="&lt;b&gt;&lt;font style=&quot;font-size: 15px;&quot;&gt;/motion&lt;/font&gt;&lt;/b&gt;&lt;br&gt;&lt;font style=&quot;font-size: 10px;&quot;&gt;[Ros Message]&lt;/font&gt;" style="shape=cylinder3;whiteSpace=wrap;html=1;boundedLbl=1;backgroundOutline=1;size=15;fontFamily=Helvetica;fontSize=11;direction=south;fillColor=#63BEF2;strokeColor=#6c8ebf;fontColor=#FFFFFF;" parent="1" vertex="1">
          <mxGeometry x="705" y="-90" width="130" height="60" as="geometry" />
        </mxCell>
        <mxCell id="F1IsbQdLiQYC1FtrxkXt-14" style="edgeStyle=orthogonalEdgeStyle;shape=connector;rounded=0;orthogonalLoop=1;jettySize=auto;html=1;dashed=1;dashPattern=12 12;labelBackgroundColor=default;strokeColor=default;align=center;verticalAlign=middle;fontFamily=Helvetica;fontSize=11;fontColor=default;endArrow=classic;entryX=0;entryY=0.5;entryDx=0;entryDy=0;entryPerimeter=0;exitX=0.5;exitY=1;exitDx=0;exitDy=0;exitPerimeter=0;" parent="1" source="q42hmGwi5cYJWaim7Y0--1" target="F1IsbQdLiQYC1FtrxkXt-13" edge="1">
          <mxGeometry relative="1" as="geometry">
            <mxPoint x="360" y="30" as="sourcePoint" />
            <mxPoint x="180" y="120" as="targetPoint" />
          </mxGeometry>
        </mxCell>
        <mxCell id="F1IsbQdLiQYC1FtrxkXt-15" value="Sends" style="edgeLabel;html=1;align=center;verticalAlign=middle;resizable=0;points=[];fontSize=16;fontFamily=Helvetica;fontColor=default;" parent="F1IsbQdLiQYC1FtrxkXt-14" vertex="1" connectable="0">
          <mxGeometry x="0.1651" relative="1" as="geometry">
            <mxPoint x="2" y="-11" as="offset" />
          </mxGeometry>
        </mxCell>
        <mxCell id="RVwXZXjjoavHLxeOAQAe-2" style="edgeStyle=orthogonalEdgeStyle;shape=connector;rounded=0;orthogonalLoop=1;jettySize=auto;html=1;exitX=0.5;exitY=0;exitDx=0;exitDy=0;exitPerimeter=0;dashed=1;dashPattern=12 12;labelBackgroundColor=default;strokeColor=default;align=center;verticalAlign=middle;fontFamily=Helvetica;fontSize=11;fontColor=default;endArrow=classic;entryX=0.5;entryY=1;entryDx=0;entryDy=0;entryPerimeter=0;" parent="1" source="NwikTDeD0qwId-Xjk9fZ-1" target="RVwXZXjjoavHLxeOAQAe-1" edge="1">
          <mxGeometry relative="1" as="geometry" />
        </mxCell>
        <mxCell id="RVwXZXjjoavHLxeOAQAe-3" value="hosts" style="edgeLabel;html=1;align=center;verticalAlign=middle;resizable=0;points=[];fontSize=16;fontFamily=Helvetica;fontColor=default;" parent="RVwXZXjjoavHLxeOAQAe-2" vertex="1" connectable="0">
          <mxGeometry x="0.0135" y="-1" relative="1" as="geometry">
            <mxPoint x="-1" y="-10" as="offset" />
          </mxGeometry>
        </mxCell>
        <object placeholders="1" c4Name="web_control_center" c4Type="Node" c4Technology="Python, Flask" c4Description="Hosts the website" label="&lt;font style=&quot;font-size: 16px&quot;&gt;&lt;b&gt;%c4Name%&lt;/b&gt;&lt;/font&gt;&lt;div&gt;[%c4Type%: %c4Technology%]&lt;/div&gt;&lt;br&gt;&lt;div&gt;&lt;font style=&quot;font-size: 11px&quot;&gt;%c4Description%&lt;/font&gt;&lt;/div&gt;" id="NwikTDeD0qwId-Xjk9fZ-1">
          <mxCell style="rounded=1;whiteSpace=wrap;html=1;labelBackgroundColor=none;fillColor=#63BEF2;fontColor=#ffffff;align=center;arcSize=6;strokeColor=#2086C9;metaEdit=1;resizable=0;points=[[0.25,0,0],[0.5,0,0],[0.75,0,0],[1,0.25,0],[1,0.5,0],[1,0.75,0],[0.75,1,0],[0.5,1,0],[0.25,1,0],[0,0.75,0],[0,0.5,0],[0,0.25,0]];fontFamily=Helvetica;fontSize=11;" parent="1" vertex="1">
            <mxGeometry x="660" y="-540" width="240" height="120" as="geometry" />
          </mxCell>
        </object>
        <mxCell id="-KN5KGl0VvXtwBFBRnwQ-1" style="edgeStyle=orthogonalEdgeStyle;shape=connector;rounded=0;orthogonalLoop=1;jettySize=auto;html=1;dashed=1;dashPattern=12 12;labelBackgroundColor=default;strokeColor=default;align=center;verticalAlign=middle;fontFamily=Helvetica;fontSize=11;fontColor=default;endArrow=classic;entryX=0.75;entryY=1;entryDx=0;entryDy=0;entryPerimeter=0;exitX=0.75;exitY=0;exitDx=0;exitDy=0;exitPerimeter=0;" parent="1" source="q7vr5eoO_c8sCQJDjxWw-1" target="N3fHUZpCJ3BZkla1dzdG-1" edge="1">
          <mxGeometry relative="1" as="geometry">
            <mxPoint x="750" y="-520" as="sourcePoint" />
          </mxGeometry>
        </mxCell>
        <mxCell id="-KN5KGl0VvXtwBFBRnwQ-2" value="Convert Image" style="edgeLabel;html=1;align=center;verticalAlign=middle;resizable=0;points=[];fontSize=16;fontFamily=Helvetica;fontColor=default;rotation=0;" parent="-KN5KGl0VvXtwBFBRnwQ-1" vertex="1" connectable="0">
          <mxGeometry x="0.1133" y="2" relative="1" as="geometry">
            <mxPoint x="3" y="-70" as="offset" />
          </mxGeometry>
        </mxCell>
        <object placeholders="1" c4Name="camera_opencv" c4Type="Node" c4Technology="Python" c4Description="Procces image data and calculate the Position of the Person" label="&lt;font style=&quot;font-size: 16px&quot;&gt;&lt;b&gt;%c4Name%&lt;/b&gt;&lt;/font&gt;&lt;div&gt;[%c4Type%: %c4Technology%]&lt;/div&gt;&lt;br&gt;&lt;div&gt;&lt;font style=&quot;font-size: 11px&quot;&gt;%c4Description%&lt;/font&gt;&lt;/div&gt;" id="q7vr5eoO_c8sCQJDjxWw-1">
          <mxCell style="rounded=1;whiteSpace=wrap;html=1;labelBackgroundColor=none;fillColor=#63BEF2;fontColor=#ffffff;align=center;arcSize=6;strokeColor=#2086C9;metaEdit=1;resizable=0;points=[[0.25,0,0],[0.5,0,0],[0.75,0,0],[1,0.25,0],[1,0.5,0],[1,0.75,0],[0.75,1,0],[0.5,1,0],[0.25,1,0],[0,0.75,0],[0,0.5,0],[0,0.25,0]];fontFamily=Helvetica;fontSize=11;" parent="1" vertex="1">
            <mxGeometry x="360" y="-400" width="240" height="120" as="geometry" />
          </mxCell>
        </object>
        <mxCell id="RvbgcZ0qusNUK4N2-j-j-1" style="edgeStyle=orthogonalEdgeStyle;shape=connector;rounded=0;orthogonalLoop=1;jettySize=auto;html=1;dashed=1;dashPattern=12 12;labelBackgroundColor=default;strokeColor=default;align=center;verticalAlign=middle;fontFamily=Helvetica;fontSize=11;fontColor=default;endArrow=classic;entryX=0;entryY=0.5;entryDx=0;entryDy=0;entryPerimeter=0;" parent="1" target="RvbgcZ0qusNUK4N2-j-j-3" edge="1">
          <mxGeometry relative="1" as="geometry">
            <mxPoint x="750" y="-420" as="sourcePoint" />
            <mxPoint x="780" y="-380" as="targetPoint" />
          </mxGeometry>
        </mxCell>
        <mxCell id="RvbgcZ0qusNUK4N2-j-j-2" value="Listens to" style="edgeLabel;html=1;align=center;verticalAlign=middle;resizable=0;points=[];fontSize=16;fontFamily=Helvetica;fontColor=default;" parent="RvbgcZ0qusNUK4N2-j-j-1" vertex="1" connectable="0">
          <mxGeometry x="0.1651" relative="1" as="geometry">
            <mxPoint y="-6" as="offset" />
          </mxGeometry>
        </mxCell>
        <mxCell id="RvbgcZ0qusNUK4N2-j-j-3" value="&lt;font style=&quot;font-size: 15px;&quot;&gt;&lt;b&gt;/opencv_image&lt;/b&gt;&lt;/font&gt;&lt;br&gt;&lt;font style=&quot;font-size: 10px;&quot;&gt;[Ros Message]&lt;/font&gt;" style="shape=cylinder3;whiteSpace=wrap;html=1;boundedLbl=1;backgroundOutline=1;size=15;fontFamily=Helvetica;fontSize=11;direction=south;fillColor=#63BEF2;strokeColor=#6c8ebf;fontColor=#FFFFFF;" parent="1" vertex="1">
          <mxGeometry x="670" y="-370" width="160" height="60" as="geometry" />
        </mxCell>
        <mxCell id="RvbgcZ0qusNUK4N2-j-j-4" style="edgeStyle=orthogonalEdgeStyle;shape=connector;rounded=0;orthogonalLoop=1;jettySize=auto;html=1;dashed=1;dashPattern=12 12;labelBackgroundColor=default;strokeColor=default;align=center;verticalAlign=middle;fontFamily=Helvetica;fontSize=11;fontColor=default;endArrow=classic;entryX=0.5;entryY=1;entryDx=0;entryDy=0;entryPerimeter=0;" parent="1" source="q7vr5eoO_c8sCQJDjxWw-1" target="RvbgcZ0qusNUK4N2-j-j-3" edge="1">
          <mxGeometry relative="1" as="geometry">
            <mxPoint x="695" y="-370" as="sourcePoint" />
            <mxPoint x="725" y="-350" as="targetPoint" />
          </mxGeometry>
        </mxCell>
        <mxCell id="RvbgcZ0qusNUK4N2-j-j-5" value="Sends" style="edgeLabel;html=1;align=center;verticalAlign=middle;resizable=0;points=[];fontSize=16;fontFamily=Helvetica;fontColor=default;" parent="RvbgcZ0qusNUK4N2-j-j-4" vertex="1" connectable="0">
          <mxGeometry x="0.1651" relative="1" as="geometry">
            <mxPoint x="-7" y="-11" as="offset" />
          </mxGeometry>
        </mxCell>
        <mxCell id="90S0y9ewzuLU5ivLS36r-1" style="edgeStyle=orthogonalEdgeStyle;shape=connector;rounded=0;orthogonalLoop=1;jettySize=auto;html=1;dashed=1;dashPattern=12 12;labelBackgroundColor=default;strokeColor=default;align=center;verticalAlign=middle;fontFamily=Helvetica;fontSize=11;fontColor=default;endArrow=classic;exitX=0;exitY=0.5;exitDx=0;exitDy=0;exitPerimeter=0;" parent="1" source="q42hmGwi5cYJWaim7Y0--1" target="90S0y9ewzuLU5ivLS36r-3" edge="1">
          <mxGeometry relative="1" as="geometry">
            <mxPoint x="450" y="-130" as="sourcePoint" />
          </mxGeometry>
        </mxCell>
        <mxCell id="90S0y9ewzuLU5ivLS36r-2" value="Listens to" style="edgeLabel;html=1;align=center;verticalAlign=middle;resizable=0;points=[];fontSize=16;fontFamily=Helvetica;fontColor=default;" parent="90S0y9ewzuLU5ivLS36r-1" vertex="1" connectable="0">
          <mxGeometry x="0.1651" relative="1" as="geometry">
            <mxPoint as="offset" />
          </mxGeometry>
        </mxCell>
        <mxCell id="90S0y9ewzuLU5ivLS36r-3" value="&lt;font style=&quot;font-size: 15px;&quot;&gt;&lt;b&gt;/position_data&lt;/b&gt;&lt;/font&gt;&lt;br&gt;&lt;font style=&quot;font-size: 10px;&quot;&gt;[Ros Message]&lt;/font&gt;" style="shape=cylinder3;whiteSpace=wrap;html=1;boundedLbl=1;backgroundOutline=1;size=15;fontFamily=Helvetica;fontSize=11;direction=south;fillColor=#63BEF2;strokeColor=#6c8ebf;fontColor=#FFFFFF;" parent="1" vertex="1">
          <mxGeometry x="410" y="-240" width="140" height="60" as="geometry" />
        </mxCell>
        <mxCell id="90S0y9ewzuLU5ivLS36r-4" style="edgeStyle=orthogonalEdgeStyle;shape=connector;rounded=0;orthogonalLoop=1;jettySize=auto;html=1;dashed=1;dashPattern=12 12;labelBackgroundColor=default;strokeColor=default;align=center;verticalAlign=middle;fontFamily=Helvetica;fontSize=11;fontColor=default;endArrow=classic;entryX=0;entryY=0.5;entryDx=0;entryDy=0;entryPerimeter=0;" parent="1" source="q7vr5eoO_c8sCQJDjxWw-1" target="90S0y9ewzuLU5ivLS36r-3" edge="1">
          <mxGeometry relative="1" as="geometry">
            <mxPoint x="450" y="-300" as="sourcePoint" />
            <mxPoint x="480" y="-280" as="targetPoint" />
          </mxGeometry>
        </mxCell>
        <mxCell id="90S0y9ewzuLU5ivLS36r-5" value="Sends" style="edgeLabel;html=1;align=center;verticalAlign=middle;resizable=0;points=[];fontSize=16;fontFamily=Helvetica;fontColor=default;" parent="90S0y9ewzuLU5ivLS36r-4" vertex="1" connectable="0">
          <mxGeometry x="0.1651" relative="1" as="geometry">
            <mxPoint as="offset" />
          </mxGeometry>
        </mxCell>
        <object placeholders="1" c4Type="Follow-me control center" c4Container="Website" c4Technology="JavaScript, html." c4Description="Web overlay to monitor and control the robot" label="&lt;font style=&quot;font-size: 16px&quot;&gt;&lt;b&gt;%c4Type%&lt;/b&gt;&lt;/font&gt;&lt;div&gt;[%c4Container%:&amp;nbsp;%c4Technology%]&lt;/div&gt;&lt;br&gt;&lt;div&gt;&lt;font style=&quot;font-size: 11px&quot;&gt;&lt;font color=&quot;#E6E6E6&quot;&gt;%c4Description%&lt;/font&gt;&lt;/div&gt;" id="RVwXZXjjoavHLxeOAQAe-1">
          <mxCell style="shape=mxgraph.c4.webBrowserContainer2;whiteSpace=wrap;html=1;boundedLbl=1;rounded=0;labelBackgroundColor=none;strokeColor=#118ACD;fillColor=#23A2D9;strokeColor=#118ACD;strokeColor2=#0E7DAD;fontSize=12;fontColor=#ffffff;align=center;metaEdit=1;points=[[0.5,0,0],[1,0.25,0],[1,0.5,0],[1,0.75,0],[0.5,1,0],[0,0.75,0],[0,0.5,0],[0,0.25,0]];resizable=0;" parent="1" vertex="1">
            <mxGeometry x="660" y="-760" width="240" height="160" as="geometry" />
          </mxCell>
        </object>
        <object placeholders="1" c4Name="cv_bridge" c4Type="Function" c4Description="Cv Image / Ros 2 Image Converter " label="&lt;font style=&quot;font-size: 16px&quot;&gt;&lt;b&gt;%c4Name%&lt;/b&gt;&lt;/font&gt;&lt;div&gt;[%c4Type%]&lt;/div&gt;&lt;br&gt;&lt;div&gt;&lt;font style=&quot;font-size: 11px&quot;&gt;&lt;font color=&quot;#cccccc&quot;&gt;%c4Description%&lt;/font&gt;&lt;/div&gt;" id="N3fHUZpCJ3BZkla1dzdG-1">
          <mxCell style="rounded=1;whiteSpace=wrap;html=1;labelBackgroundColor=none;fillColor=#8C8496;fontColor=#ffffff;align=center;arcSize=10;strokeColor=#736782;metaEdit=1;resizable=0;points=[[0.25,0,0],[0.5,0,0],[0.75,0,0],[1,0.25,0],[1,0.5,0],[1,0.75,0],[0.75,1,0],[0.5,1,0],[0.25,1,0],[0,0.75,0],[0,0.5,0],[0,0.25,0]];fontFamily=Helvetica;fontSize=11;" parent="1" vertex="1">
            <mxGeometry x="360" y="-720" width="240" height="120" as="geometry" />
          </mxCell>
        </object>
        <object placeholders="1" c4Name="human_detection" c4Type="Function" c4Technology="Python" c4Description="Function to analise an image and calculate the position of the Person" label="&lt;font style=&quot;font-size: 16px&quot;&gt;&lt;b&gt;%c4Name%&lt;/b&gt;&lt;/font&gt;&lt;div&gt;[%c4Type%: %c4Technology%]&lt;/div&gt;&lt;br&gt;&lt;div&gt;&lt;font style=&quot;font-size: 11px&quot;&gt;%c4Description%&lt;/font&gt;&lt;/div&gt;" id="CyAGk1viBx9zXPYIsll9-1">
          <mxCell style="rounded=1;whiteSpace=wrap;html=1;labelBackgroundColor=none;fillColor=#63BEF2;fontColor=#ffffff;align=center;arcSize=6;strokeColor=#2086C9;metaEdit=1;resizable=0;points=[[0.25,0,0],[0.5,0,0],[0.75,0,0],[1,0.25,0],[1,0.5,0],[1,0.75,0],[0.75,1,0],[0.5,1,0],[0.25,1,0],[0,0.75,0],[0,0.5,0],[0,0.25,0]];fontFamily=Helvetica;fontSize=11;" parent="1" vertex="1">
            <mxGeometry x="60" y="-400" width="240" height="120" as="geometry" />
          </mxCell>
        </object>
        <mxCell id="CyAGk1viBx9zXPYIsll9-3" style="edgeStyle=orthogonalEdgeStyle;shape=connector;rounded=0;orthogonalLoop=1;jettySize=auto;html=1;dashed=1;dashPattern=12 12;labelBackgroundColor=default;strokeColor=default;align=center;verticalAlign=middle;fontFamily=Helvetica;fontSize=11;fontColor=default;endArrow=classic;entryX=0.75;entryY=1;entryDx=0;entryDy=0;entryPerimeter=0;exitX=0;exitY=0.25;exitDx=0;exitDy=0;exitPerimeter=0;" parent="1" source="NwikTDeD0qwId-Xjk9fZ-1" target="N3fHUZpCJ3BZkla1dzdG-1" edge="1">
          <mxGeometry relative="1" as="geometry">
            <mxPoint x="650" y="-460" as="sourcePoint" />
            <mxPoint x="490" y="-720" as="targetPoint" />
          </mxGeometry>
        </mxCell>
        <mxCell id="CyAGk1viBx9zXPYIsll9-5" style="edgeStyle=orthogonalEdgeStyle;shape=connector;rounded=0;orthogonalLoop=1;jettySize=auto;html=1;exitX=0;exitY=0.75;exitDx=0;exitDy=0;exitPerimeter=0;entryX=0.987;entryY=0.758;entryDx=0;entryDy=0;entryPerimeter=0;dashed=1;dashPattern=12 12;labelBackgroundColor=default;strokeColor=default;align=center;verticalAlign=middle;fontFamily=Helvetica;fontSize=11;fontColor=default;endArrow=classic;" parent="1" source="q7vr5eoO_c8sCQJDjxWw-1" target="CyAGk1viBx9zXPYIsll9-1" edge="1">
          <mxGeometry relative="1" as="geometry" />
        </mxCell>
        <mxCell id="CyAGk1viBx9zXPYIsll9-6" value="Image" style="edgeLabel;html=1;align=center;verticalAlign=middle;resizable=0;points=[];fontSize=16;fontFamily=Helvetica;fontColor=default;" parent="CyAGk1viBx9zXPYIsll9-5" vertex="1" connectable="0">
          <mxGeometry x="-0.0926" relative="1" as="geometry">
            <mxPoint x="-3" y="-12" as="offset" />
          </mxGeometry>
        </mxCell>
        <mxCell id="CyAGk1viBx9zXPYIsll9-7" style="edgeStyle=orthogonalEdgeStyle;shape=connector;rounded=0;orthogonalLoop=1;jettySize=auto;html=1;exitX=1;exitY=0.25;exitDx=0;exitDy=0;exitPerimeter=0;entryX=0;entryY=0.25;entryDx=0;entryDy=0;entryPerimeter=0;dashed=1;dashPattern=12 12;labelBackgroundColor=default;strokeColor=default;align=center;verticalAlign=middle;fontFamily=Helvetica;fontSize=11;fontColor=default;endArrow=classic;" parent="1" source="CyAGk1viBx9zXPYIsll9-1" target="q7vr5eoO_c8sCQJDjxWw-1" edge="1">
          <mxGeometry relative="1" as="geometry" />
        </mxCell>
        <mxCell id="CyAGk1viBx9zXPYIsll9-8" value="Position" style="edgeLabel;html=1;align=center;verticalAlign=middle;resizable=0;points=[];fontSize=16;fontFamily=Helvetica;fontColor=default;" parent="CyAGk1viBx9zXPYIsll9-7" vertex="1" connectable="0">
          <mxGeometry x="-0.0436" y="1" relative="1" as="geometry">
            <mxPoint x="1" y="-12" as="offset" />
          </mxGeometry>
        </mxCell>
        <object placeholders="1" c4Name="Camera" c4Type="Hardwear Component" c4Description="" label="&lt;font style=&quot;font-size: 16px&quot;&gt;&lt;b&gt;%c4Name%&lt;/b&gt;&lt;/font&gt;&lt;div&gt;[%c4Type%]&lt;/div&gt;&lt;br&gt;&lt;div&gt;&lt;font style=&quot;font-size: 11px&quot;&gt;&lt;font color=&quot;#cccccc&quot;&gt;%c4Description%&lt;/font&gt;&lt;/div&gt;" id="RAJ4CuATPl-6WhlAHo8r-1">
          <mxCell style="rounded=1;whiteSpace=wrap;html=1;labelBackgroundColor=none;fillColor=#2D2B30;fontColor=#ffffff;align=center;arcSize=10;strokeColor=#736782;metaEdit=1;resizable=0;points=[[0.25,0,0],[0.5,0,0],[0.75,0,0],[1,0.25,0],[1,0.5,0],[1,0.75,0],[0.75,1,0],[0.5,1,0],[0.25,1,0],[0,0.75,0],[0,0.5,0],[0,0.25,0]];" parent="1" vertex="1">
            <mxGeometry x="60" y="-720" width="240" height="120" as="geometry" />
          </mxCell>
        </object>
        <mxCell id="RAJ4CuATPl-6WhlAHo8r-5" style="edgeStyle=orthogonalEdgeStyle;shape=connector;rounded=0;orthogonalLoop=1;jettySize=auto;html=1;exitX=0.25;exitY=0;exitDx=0;exitDy=0;exitPerimeter=0;entryX=0.75;entryY=1;entryDx=0;entryDy=0;entryPerimeter=0;dashed=1;dashPattern=12 12;labelBackgroundColor=default;strokeColor=default;align=center;verticalAlign=middle;fontFamily=Helvetica;fontSize=11;fontColor=default;endArrow=classic;" parent="1" source="q7vr5eoO_c8sCQJDjxWw-1" target="RAJ4CuATPl-6WhlAHo8r-1" edge="1">
          <mxGeometry relative="1" as="geometry">
            <Array as="points">
              <mxPoint x="420" y="-570" />
              <mxPoint x="240" y="-570" />
            </Array>
          </mxGeometry>
        </mxCell>
        <mxCell id="RAJ4CuATPl-6WhlAHo8r-6" value="Uses" style="edgeLabel;html=1;align=center;verticalAlign=middle;resizable=0;points=[];fontSize=16;fontFamily=Helvetica;fontColor=default;" parent="RAJ4CuATPl-6WhlAHo8r-5" vertex="1" connectable="0">
          <mxGeometry x="0.3834" y="-2" relative="1" as="geometry">
            <mxPoint y="-8" as="offset" />
          </mxGeometry>
        </mxCell>
        <mxCell id="Ha7YPoGROHQdRhAkCSfn-1" style="edgeStyle=orthogonalEdgeStyle;shape=connector;rounded=0;orthogonalLoop=1;jettySize=auto;html=1;exitX=1;exitY=0.5;exitDx=0;exitDy=0;exitPerimeter=0;dashed=1;dashPattern=12 12;labelBackgroundColor=default;strokeColor=default;align=center;verticalAlign=middle;fontFamily=Helvetica;fontSize=11;fontColor=default;endArrow=classic;entryX=1;entryY=0.5;entryDx=0;entryDy=0;entryPerimeter=0;" parent="1" source="q42hmGwi5cYJWaim7Y0--1" target="Ha7YPoGROHQdRhAkCSfn-3" edge="1">
          <mxGeometry relative="1" as="geometry">
            <mxPoint x="795" y="-100" as="sourcePoint" />
          </mxGeometry>
        </mxCell>
        <mxCell id="Ha7YPoGROHQdRhAkCSfn-2" value="Listens to" style="edgeLabel;html=1;align=center;verticalAlign=middle;resizable=0;points=[];fontSize=16;fontFamily=Helvetica;fontColor=default;" parent="Ha7YPoGROHQdRhAkCSfn-1" vertex="1" connectable="0">
          <mxGeometry x="0.1651" relative="1" as="geometry">
            <mxPoint y="-28" as="offset" />
          </mxGeometry>
        </mxCell>
        <mxCell id="Ha7YPoGROHQdRhAkCSfn-3" value="&lt;b&gt;&lt;font style=&quot;font-size: 15px;&quot;&gt;/control&lt;/font&gt;&lt;/b&gt;&lt;br&gt;&lt;font style=&quot;font-size: 10px;&quot;&gt;[Ros Message]&lt;/font&gt;" style="shape=cylinder3;whiteSpace=wrap;html=1;boundedLbl=1;backgroundOutline=1;size=15;fontFamily=Helvetica;fontSize=11;direction=south;fillColor=#63BEF2;strokeColor=#6c8ebf;fontColor=#FFFFFF;" parent="1" vertex="1">
          <mxGeometry x="860" y="-370" width="130" height="60" as="geometry" />
        </mxCell>
        <mxCell id="Ha7YPoGROHQdRhAkCSfn-4" style="edgeStyle=orthogonalEdgeStyle;shape=connector;rounded=0;orthogonalLoop=1;jettySize=auto;html=1;dashed=1;dashPattern=12 12;labelBackgroundColor=default;strokeColor=default;align=center;verticalAlign=middle;fontFamily=Helvetica;fontSize=11;fontColor=default;endArrow=classic;entryX=0;entryY=0.5;entryDx=0;entryDy=0;entryPerimeter=0;exitX=1;exitY=0.5;exitDx=0;exitDy=0;exitPerimeter=0;" parent="1" source="NwikTDeD0qwId-Xjk9fZ-1" target="Ha7YPoGROHQdRhAkCSfn-3" edge="1">
          <mxGeometry relative="1" as="geometry">
            <mxPoint x="795" y="-270" as="sourcePoint" />
            <mxPoint x="825" y="-250" as="targetPoint" />
          </mxGeometry>
        </mxCell>
        <mxCell id="Ha7YPoGROHQdRhAkCSfn-5" value="Sends" style="edgeLabel;html=1;align=center;verticalAlign=middle;resizable=0;points=[];fontSize=16;fontFamily=Helvetica;fontColor=default;" parent="Ha7YPoGROHQdRhAkCSfn-4" vertex="1" connectable="0">
          <mxGeometry x="0.1651" relative="1" as="geometry">
            <mxPoint y="-36" as="offset" />
          </mxGeometry>
        </mxCell>
        <object placeholders="1" c4Name="arduino_interface" c4Type="Node" c4Technology="Python" c4Description="Interacts with the arduino over serial " label="&lt;font style=&quot;font-size: 16px&quot;&gt;&lt;b&gt;%c4Name%&lt;/b&gt;&lt;/font&gt;&lt;div&gt;[%c4Type%: %c4Technology%]&lt;/div&gt;&lt;br&gt;&lt;div&gt;&lt;font style=&quot;font-size: 11px&quot;&gt;%c4Description%&lt;/font&gt;&lt;/div&gt;" id="RzVPiNrN5zWxLB_qvmUw-1">
          <mxCell style="rounded=1;whiteSpace=wrap;html=1;labelBackgroundColor=none;fillColor=#63BEF2;fontColor=#ffffff;align=center;arcSize=6;strokeColor=#2086C9;metaEdit=1;resizable=0;points=[[0.25,0,0],[0.5,0,0],[0.75,0,0],[1,0.25,0],[1,0.5,0],[1,0.75,0],[0.75,1,0],[0.5,1,0],[0.25,1,0],[0,0.75,0],[0,0.5,0],[0,0.25,0]];fontFamily=Helvetica;fontSize=11;" parent="1" vertex="1">
            <mxGeometry x="360" y="-120" width="240" height="120" as="geometry" />
          </mxCell>
        </object>
        <mxCell id="RzVPiNrN5zWxLB_qvmUw-2" value="&lt;span style=&quot;font-size: 15px;&quot;&gt;&lt;b&gt;Serial Port&lt;/b&gt;&lt;/span&gt;" style="shape=cylinder3;whiteSpace=wrap;html=1;boundedLbl=1;backgroundOutline=1;size=15;fontFamily=Helvetica;fontSize=11;direction=south;fillColor=#63BEF2;strokeColor=#6c8ebf;fontColor=#FFFFFF;" parent="1" vertex="1">
          <mxGeometry x="415" y="60" width="130" height="60" as="geometry" />
        </mxCell>
        <mxCell id="RzVPiNrN5zWxLB_qvmUw-3" value="Listens to" style="edgeLabel;html=1;align=center;verticalAlign=middle;resizable=0;points=[];fontSize=16;fontFamily=Helvetica;fontColor=default;" parent="1" vertex="1" connectable="0">
          <mxGeometry x="590" y="-235" as="geometry">
            <mxPoint x="56" y="173" as="offset" />
          </mxGeometry>
        </mxCell>
        <mxCell id="RzVPiNrN5zWxLB_qvmUw-6" style="edgeStyle=orthogonalEdgeStyle;shape=connector;rounded=0;orthogonalLoop=1;jettySize=auto;html=1;dashed=1;dashPattern=12 12;labelBackgroundColor=default;strokeColor=default;align=center;verticalAlign=middle;fontFamily=Helvetica;fontSize=11;fontColor=default;endArrow=classic;entryX=0;entryY=0.5;entryDx=0;entryDy=0;entryPerimeter=0;exitX=0.5;exitY=1;exitDx=0;exitDy=0;exitPerimeter=0;" parent="1" source="RzVPiNrN5zWxLB_qvmUw-1" target="RzVPiNrN5zWxLB_qvmUw-2" edge="1">
          <mxGeometry relative="1" as="geometry">
            <mxPoint x="790" y="-112" as="sourcePoint" />
            <mxPoint x="790" y="-52" as="targetPoint" />
          </mxGeometry>
        </mxCell>
        <mxCell id="RzVPiNrN5zWxLB_qvmUw-7" value="Sends" style="edgeLabel;html=1;align=center;verticalAlign=middle;resizable=0;points=[];fontSize=16;fontFamily=Helvetica;fontColor=default;" parent="RzVPiNrN5zWxLB_qvmUw-6" vertex="1" connectable="0">
          <mxGeometry x="0.1651" relative="1" as="geometry">
            <mxPoint x="2" y="-20" as="offset" />
          </mxGeometry>
        </mxCell>
        <object placeholders="1" c4Name="Arduino_Skript" c4Type="Skript" c4Technology="Arduino C" c4Description="Skript running on the arduino" label="&lt;font style=&quot;font-size: 16px&quot;&gt;&lt;b&gt;%c4Name%&lt;/b&gt;&lt;/font&gt;&lt;div&gt;[%c4Type%: %c4Technology%]&lt;/div&gt;&lt;br&gt;&lt;div&gt;&lt;font style=&quot;font-size: 11px&quot;&gt;%c4Description%&lt;/font&gt;&lt;/div&gt;" id="52EGGPlvZ2nvFUpeIYe5-1">
          <mxCell style="rounded=1;whiteSpace=wrap;html=1;labelBackgroundColor=none;fillColor=#63BEF2;fontColor=#ffffff;align=center;arcSize=6;strokeColor=#2086C9;metaEdit=1;resizable=0;points=[[0.25,0,0],[0.5,0,0],[0.75,0,0],[1,0.25,0],[1,0.5,0],[1,0.75,0],[0.75,1,0],[0.5,1,0],[0.25,1,0],[0,0.75,0],[0,0.5,0],[0,0.25,0]];" parent="1" vertex="1">
            <mxGeometry x="360" y="160" width="240" height="120" as="geometry" />
          </mxCell>
        </object>
        <mxCell id="52EGGPlvZ2nvFUpeIYe5-2" style="edgeStyle=orthogonalEdgeStyle;shape=connector;rounded=0;orthogonalLoop=1;jettySize=auto;html=1;dashed=1;dashPattern=12 12;labelBackgroundColor=default;strokeColor=default;align=center;verticalAlign=middle;fontFamily=Helvetica;fontSize=11;fontColor=default;endArrow=classic;exitX=0.5;exitY=0;exitDx=0;exitDy=0;exitPerimeter=0;entryX=1;entryY=0.5;entryDx=0;entryDy=0;entryPerimeter=0;" parent="1" source="52EGGPlvZ2nvFUpeIYe5-1" target="RzVPiNrN5zWxLB_qvmUw-2" edge="1">
          <mxGeometry relative="1" as="geometry">
            <mxPoint x="610" y="-50" as="sourcePoint" />
            <mxPoint x="680" y="190" as="targetPoint" />
          </mxGeometry>
        </mxCell>
        <mxCell id="52EGGPlvZ2nvFUpeIYe5-4" value="Listens to" style="edgeLabel;html=1;align=center;verticalAlign=middle;resizable=0;points=[];fontSize=16;fontFamily=Helvetica;fontColor=default;" parent="1" vertex="1" connectable="0">
          <mxGeometry x="420" y="-220" as="geometry">
            <mxPoint x="60" y="356" as="offset" />
          </mxGeometry>
        </mxCell>
      </root>
    </mxGraphModel>
  </diagram>
  <diagram id="jdo6cTx8KOnGbL-VvKh1" name="C4-Code">
    <mxGraphModel dx="940" dy="643" grid="1" gridSize="10" guides="1" tooltips="1" connect="1" arrows="1" fold="1" page="1" pageScale="1" pageWidth="1169" pageHeight="827" math="0" shadow="0">
      <root>
        <mxCell id="0" />
        <mxCell id="1" parent="0" />
      </root>
    </mxGraphModel>
  </diagram>
  <diagram id="jZPWvr4OX5m1PxQi5A0N" name="Sequenzdiagram">
    <mxGraphModel dx="1343" dy="919" grid="1" gridSize="10" guides="1" tooltips="1" connect="1" arrows="1" fold="1" page="1" pageScale="1" pageWidth="1169" pageHeight="827" math="0" shadow="0">
      <root>
        <mxCell id="0" />
        <mxCell id="1" parent="0" />
        <mxCell id="mxsMCVlN9BsEGnkN4k-E-3" value="" style="shape=umlLifeline;perimeter=lifelinePerimeter;whiteSpace=wrap;html=1;container=1;dropTarget=0;collapsible=0;recursiveResize=0;outlineConnect=0;portConstraint=eastwest;newEdgeStyle={&quot;curved&quot;:0,&quot;rounded&quot;:0};participant=umlActor;" vertex="1" parent="1">
          <mxGeometry x="70" y="40" width="20" height="440" as="geometry" />
        </mxCell>
        <mxCell id="MHFfnadz3jGgOm2f-g-L-1" value=":camera_opencv" style="shape=umlLifeline;perimeter=lifelinePerimeter;whiteSpace=wrap;html=1;container=1;dropTarget=0;collapsible=0;recursiveResize=0;outlineConnect=0;portConstraint=eastwest;newEdgeStyle={&quot;curved&quot;:0,&quot;rounded&quot;:0};" vertex="1" parent="1">
          <mxGeometry x="560" y="40" width="100" height="440" as="geometry" />
        </mxCell>
        <mxCell id="p3ixkpf90ra_H3-2Wa0d-1" value="Kamera nimt ein bild auf&amp;nbsp;" style="html=1;verticalAlign=bottom;endArrow=block;curved=0;rounded=0;" edge="1" parent="1" source="mxsMCVlN9BsEGnkN4k-E-3" target="MHFfnadz3jGgOm2f-g-L-1">
          <mxGeometry width="80" relative="1" as="geometry">
            <mxPoint x="80" y="120" as="sourcePoint" />
            <mxPoint x="160" y="120" as="targetPoint" />
            <Array as="points">
              <mxPoint x="350" y="110" />
            </Array>
          </mxGeometry>
        </mxCell>
        <mxCell id="cz5fj0JXLhB1-MKjo52j-1" value=":human_detection" style="shape=umlLifeline;perimeter=lifelinePerimeter;whiteSpace=wrap;html=1;container=1;dropTarget=0;collapsible=0;recursiveResize=0;outlineConnect=0;portConstraint=eastwest;newEdgeStyle={&quot;curved&quot;:0,&quot;rounded&quot;:0};" vertex="1" parent="1">
          <mxGeometry x="700" y="40" width="100" height="170" as="geometry" />
        </mxCell>
        <mxCell id="cz5fj0JXLhB1-MKjo52j-10" value="" style="html=1;points=[[0,0,0,0,5],[0,1,0,0,-5],[1,0,0,0,5],[1,1,0,0,-5]];perimeter=orthogonalPerimeter;outlineConnect=0;targetShapes=umlLifeline;portConstraint=eastwest;newEdgeStyle={&quot;curved&quot;:0,&quot;rounded&quot;:0};" vertex="1" parent="cz5fj0JXLhB1-MKjo52j-1">
          <mxGeometry x="45" y="90" width="10" height="80" as="geometry" />
        </mxCell>
        <mxCell id="3bQacccQ2GiuNipBOLmk-1" value=":web_control_center" style="shape=umlLifeline;perimeter=lifelinePerimeter;whiteSpace=wrap;html=1;container=1;dropTarget=0;collapsible=0;recursiveResize=0;outlineConnect=0;portConstraint=eastwest;newEdgeStyle={&quot;curved&quot;:0,&quot;rounded&quot;:0};" vertex="1" parent="1">
          <mxGeometry x="260" y="40" width="120" height="440" as="geometry" />
        </mxCell>
        <mxCell id="3bQacccQ2GiuNipBOLmk-2" value=":movement_control" style="shape=umlLifeline;perimeter=lifelinePerimeter;whiteSpace=wrap;html=1;container=1;dropTarget=0;collapsible=0;recursiveResize=0;outlineConnect=0;portConstraint=eastwest;newEdgeStyle={&quot;curved&quot;:0,&quot;rounded&quot;:0};" vertex="1" parent="1">
          <mxGeometry x="840" y="40" width="120" height="440" as="geometry" />
        </mxCell>
        <mxCell id="a3C5ODEgFpbWFOetJmt8-4" value="" style="html=1;points=[[0,0,0,0,5],[0,1,0,0,-5],[1,0,0,0,5],[1,1,0,0,-5]];perimeter=orthogonalPerimeter;outlineConnect=0;targetShapes=umlLifeline;portConstraint=eastwest;newEdgeStyle={&quot;curved&quot;:0,&quot;rounded&quot;:0};" vertex="1" parent="3bQacccQ2GiuNipBOLmk-2">
          <mxGeometry x="55" y="250" width="10" height="40" as="geometry" />
        </mxCell>
        <mxCell id="a3C5ODEgFpbWFOetJmt8-5" value="Verarbeitet&amp;nbsp;die &lt;br&gt;Positionsdaten" style="html=1;align=right;spacingLeft=2;endArrow=block;rounded=0;edgeStyle=orthogonalEdgeStyle;curved=0;rounded=0;" edge="1" target="a3C5ODEgFpbWFOetJmt8-4" parent="3bQacccQ2GiuNipBOLmk-2" source="3bQacccQ2GiuNipBOLmk-2">
          <mxGeometry x="-0.0263" relative="1" as="geometry">
            <mxPoint x="-50" y="290" as="sourcePoint" />
            <Array as="points">
              <mxPoint x="-10" y="220" />
              <mxPoint x="-10" y="270" />
            </Array>
            <mxPoint as="offset" />
          </mxGeometry>
        </mxCell>
        <mxCell id="Pe-JjHlRvwbS3aSjQqCr-1" value="Verarbeitetes Bild" style="html=1;verticalAlign=bottom;endArrow=block;curved=0;rounded=0;" edge="1" parent="1" source="MHFfnadz3jGgOm2f-g-L-1" target="3bQacccQ2GiuNipBOLmk-1">
          <mxGeometry width="80" relative="1" as="geometry">
            <mxPoint x="560" y="210" as="sourcePoint" />
            <mxPoint x="620" y="250" as="targetPoint" />
            <Array as="points">
              <mxPoint x="440" y="340" />
            </Array>
          </mxGeometry>
        </mxCell>
        <mxCell id="Pe-JjHlRvwbS3aSjQqCr-4" value="Positionsdaten" style="html=1;verticalAlign=bottom;endArrow=block;curved=0;rounded=0;" edge="1" parent="1" source="MHFfnadz3jGgOm2f-g-L-1" target="3bQacccQ2GiuNipBOLmk-2">
          <mxGeometry x="-0.0295" width="80" relative="1" as="geometry">
            <mxPoint x="790" y="310" as="sourcePoint" />
            <mxPoint x="870" y="310" as="targetPoint" />
            <Array as="points">
              <mxPoint x="750" y="240" />
            </Array>
            <mxPoint as="offset" />
          </mxGeometry>
        </mxCell>
        <mxCell id="Pe-JjHlRvwbS3aSjQqCr-5" value=":Follow-me control center" style="shape=umlLifeline;perimeter=lifelinePerimeter;whiteSpace=wrap;html=1;container=1;dropTarget=0;collapsible=0;recursiveResize=0;outlineConnect=0;portConstraint=eastwest;newEdgeStyle={&quot;curved&quot;:0,&quot;rounded&quot;:0};" vertex="1" parent="1">
          <mxGeometry x="120" y="40" width="100" height="440" as="geometry" />
        </mxCell>
        <mxCell id="a3C5ODEgFpbWFOetJmt8-1" value="hostet das Bild" style="html=1;verticalAlign=bottom;endArrow=block;curved=0;rounded=0;" edge="1" parent="1" source="3bQacccQ2GiuNipBOLmk-1" target="Pe-JjHlRvwbS3aSjQqCr-5">
          <mxGeometry width="80" relative="1" as="geometry">
            <mxPoint x="280" y="280" as="sourcePoint" />
            <mxPoint x="360" y="280" as="targetPoint" />
            <Array as="points">
              <mxPoint x="300" y="370" />
            </Array>
          </mxGeometry>
        </mxCell>
        <mxCell id="gTH5eIpUEe7Kk2aKR_cM-1" value=":arduino_interface" style="shape=umlLifeline;perimeter=lifelinePerimeter;whiteSpace=wrap;html=1;container=1;dropTarget=0;collapsible=0;recursiveResize=0;outlineConnect=0;portConstraint=eastwest;newEdgeStyle={&quot;curved&quot;:0,&quot;rounded&quot;:0};" vertex="1" parent="1">
          <mxGeometry x="1000" y="40" width="120" height="440" as="geometry" />
        </mxCell>
        <mxCell id="gTH5eIpUEe7Kk2aKR_cM-2" value="Steuerungsanweisungen" style="html=1;verticalAlign=bottom;endArrow=block;curved=0;rounded=0;" edge="1" parent="1" source="3bQacccQ2GiuNipBOLmk-2" target="gTH5eIpUEe7Kk2aKR_cM-1">
          <mxGeometry width="80" relative="1" as="geometry">
            <mxPoint x="990" y="360" as="sourcePoint" />
            <mxPoint x="1070" y="360" as="targetPoint" />
            <Array as="points">
              <mxPoint x="1020" y="360" />
            </Array>
          </mxGeometry>
        </mxCell>
        <mxCell id="gTH5eIpUEe7Kk2aKR_cM-5" value=":Arduino" style="shape=umlLifeline;perimeter=lifelinePerimeter;whiteSpace=wrap;html=1;container=1;dropTarget=0;collapsible=0;recursiveResize=0;outlineConnect=0;portConstraint=eastwest;newEdgeStyle={&quot;curved&quot;:0,&quot;rounded&quot;:0};" vertex="1" parent="1">
          <mxGeometry x="1160" y="40" width="100" height="440" as="geometry" />
        </mxCell>
        <mxCell id="gTH5eIpUEe7Kk2aKR_cM-6" value="Steuerungsanweisungen&amp;nbsp;&lt;br&gt;per Serielle Schnitstelle" style="html=1;verticalAlign=bottom;endArrow=block;curved=0;rounded=0;" edge="1" parent="1" source="gTH5eIpUEe7Kk2aKR_cM-1" target="gTH5eIpUEe7Kk2aKR_cM-5">
          <mxGeometry width="80" relative="1" as="geometry">
            <mxPoint x="1160" y="390" as="sourcePoint" />
            <mxPoint x="1240" y="390" as="targetPoint" />
            <Array as="points">
              <mxPoint x="1160" y="390" />
            </Array>
          </mxGeometry>
        </mxCell>
        <mxCell id="3W05LmKqgnGRkElx0SpT-1" value=":cv_bridge" style="shape=umlLifeline;perimeter=lifelinePerimeter;whiteSpace=wrap;html=1;container=1;dropTarget=0;collapsible=0;recursiveResize=0;outlineConnect=0;portConstraint=eastwest;newEdgeStyle={&quot;curved&quot;:0,&quot;rounded&quot;:0};" vertex="1" parent="1">
          <mxGeometry x="420" y="40" width="100" height="270" as="geometry" />
        </mxCell>
        <mxCell id="F0KKY_yZ9PGsQKbxszfM-1" value="" style="html=1;points=[[0,0,0,0,5],[0,1,0,0,-5],[1,0,0,0,5],[1,1,0,0,-5]];perimeter=orthogonalPerimeter;outlineConnect=0;targetShapes=umlLifeline;portConstraint=eastwest;newEdgeStyle={&quot;curved&quot;:0,&quot;rounded&quot;:0};" vertex="1" parent="3W05LmKqgnGRkElx0SpT-1">
          <mxGeometry x="45" y="195" width="10" height="80" as="geometry" />
        </mxCell>
        <mxCell id="F0KKY_yZ9PGsQKbxszfM-2" value="Verarbitetes &lt;br&gt;Bild" style="html=1;verticalAlign=bottom;endArrow=block;curved=0;rounded=0;entryX=1;entryY=0;entryDx=0;entryDy=5;" edge="1" target="F0KKY_yZ9PGsQKbxszfM-1" parent="1" source="MHFfnadz3jGgOm2f-g-L-1">
          <mxGeometry relative="1" as="geometry">
            <mxPoint x="671" y="240" as="sourcePoint" />
          </mxGeometry>
        </mxCell>
        <mxCell id="F0KKY_yZ9PGsQKbxszfM-3" value="Bild im Ros2 &lt;br&gt;Image Format" style="html=1;verticalAlign=bottom;endArrow=open;dashed=1;endSize=8;curved=0;rounded=0;exitX=1;exitY=1;exitDx=0;exitDy=-5;" edge="1" source="F0KKY_yZ9PGsQKbxszfM-1" parent="1" target="MHFfnadz3jGgOm2f-g-L-1">
          <mxGeometry relative="1" as="geometry">
            <mxPoint x="671" y="310" as="targetPoint" />
          </mxGeometry>
        </mxCell>
        <mxCell id="F0KKY_yZ9PGsQKbxszfM-4" value="Bild" style="html=1;verticalAlign=bottom;endArrow=block;curved=0;rounded=0;" edge="1" parent="1">
          <mxGeometry width="80" relative="1" as="geometry">
            <mxPoint x="169.5" y="389.9999999999999" as="sourcePoint" />
            <mxPoint x="79.59090909090901" y="389.9999999999999" as="targetPoint" />
            <Array as="points">
              <mxPoint x="150" y="390" />
            </Array>
          </mxGeometry>
        </mxCell>
        <mxCell id="cz5fj0JXLhB1-MKjo52j-11" value="Bild" style="html=1;verticalAlign=bottom;endArrow=block;curved=0;rounded=0;entryX=0;entryY=0;entryDx=0;entryDy=5;" edge="1" target="cz5fj0JXLhB1-MKjo52j-10" parent="1" source="MHFfnadz3jGgOm2f-g-L-1">
          <mxGeometry x="370" y="110" width="10" height="80" as="geometry">
            <mxPoint x="640" y="140" as="sourcePoint" />
          </mxGeometry>
        </mxCell>
        <mxCell id="cz5fj0JXLhB1-MKjo52j-12" value="Positionsdaten + &lt;br&gt;Verarbeitetes Bild" style="html=1;verticalAlign=bottom;endArrow=open;dashed=1;endSize=8;curved=0;rounded=0;exitX=0;exitY=1;exitDx=0;exitDy=-5;" edge="1" source="cz5fj0JXLhB1-MKjo52j-10" parent="1" target="MHFfnadz3jGgOm2f-g-L-1">
          <mxGeometry relative="1" as="geometry">
            <mxPoint x="599.5" y="205" as="targetPoint" />
          </mxGeometry>
        </mxCell>
        <mxCell id="F0KKY_yZ9PGsQKbxszfM-5" value="Folgt Person" style="html=1;verticalAlign=bottom;endArrow=block;curved=0;rounded=0;" edge="1" parent="1" source="gTH5eIpUEe7Kk2aKR_cM-5" target="mxsMCVlN9BsEGnkN4k-E-3">
          <mxGeometry width="80" relative="1" as="geometry">
            <mxPoint x="1090" y="460" as="sourcePoint" />
            <mxPoint x="830" y="450" as="targetPoint" />
            <Array as="points">
              <mxPoint x="660" y="420" />
            </Array>
          </mxGeometry>
        </mxCell>
      </root>
    </mxGraphModel>
  </diagram>
</mxfile>
